<svg width="21" height="21" viewBox="0 0 21 21" fill="none" xmlns="http://www.w3.org/2000/svg">
    <circle cx="10.3896" cy="10.3896" r="10.3896" fill="#3BB5FB" />
    <path d="M10.3077 15.8091C9.51518 15.8091 8.79469 15.713 8.12224 15.5089C7.44978 15.3047 6.87339 15.0286 6.39307 14.6563L7.12556 13.0472C7.59388 13.3954 8.08621 13.6476 8.59055 13.8157C9.09489 13.9838 9.64727 14.0679 10.2357 14.0679C10.8361 14.0679 11.2804 13.9598 11.5926 13.7437C11.9048 13.5275 12.0609 13.2153 12.0609 12.795C12.0609 12.5309 11.9648 12.3147 11.7607 12.1586C11.5566 12.0025 11.2924 11.8704 10.9562 11.7744C10.6199 11.6783 10.2597 11.5702 9.87542 11.4741C9.49116 11.3781 9.09489 11.27 8.69862 11.1379C8.30236 11.0058 7.93011 10.8377 7.60589 10.6216C7.26966 10.4054 7.00548 10.1292 6.81335 9.781C6.62122 9.43277 6.51315 8.98847 6.51315 8.46011C6.51315 7.85971 6.68126 7.31934 7.0295 6.83902C7.37773 6.35869 7.84605 5.98644 8.44646 5.71025C9.04686 5.43407 9.71931 5.30198 10.4758 5.30198C10.9321 5.30198 11.3764 5.35001 11.8327 5.44607C12.2891 5.54214 12.7093 5.67423 13.0936 5.85435C13.4779 6.02246 13.8141 6.2266 14.0783 6.45476L13.3458 8.06384C12.4091 7.37938 11.4605 7.04315 10.4878 7.04315C9.95948 7.04315 9.53919 7.15123 9.21497 7.37938C8.90276 7.59553 8.73465 7.90774 8.73465 8.31601C8.73465 8.61622 8.83071 8.84437 9.03485 9.01248C9.23899 9.1806 9.50317 9.3247 9.8394 9.43277C10.1756 9.54084 10.5359 9.64891 10.9321 9.73297C11.3284 9.81703 11.7247 9.93711 12.1089 10.0572C12.4932 10.1773 12.8654 10.3574 13.2017 10.5735C13.5379 10.7897 13.8021 11.0659 14.0062 11.4141C14.2104 11.7503 14.3064 12.1946 14.3064 12.723C14.3064 13.3354 14.1383 13.8758 13.8021 14.3441C13.4658 14.8124 12.9975 15.1726 12.3971 15.4368C11.7967 15.677 11.1002 15.8091 10.3077 15.8091ZM9.57522 17.3581V15.4248L9.73132 14.4161V6.44275L9.57522 5.57816V3.75293H11.3284V5.57816L11.1963 6.44275V14.4161L11.3284 15.4248V17.3581H9.57522Z" fill="white" />
</svg>