<svg width="53" height="50" viewBox="0 0 53 50" fill="none" xmlns="http://www.w3.org/2000/svg">
    <path d="M2.7952 22.6617C3.08094 22.6617 3.31258 22.4301 3.31258 22.1443C3.31258 21.8586 3.08094 21.627 2.7952 21.627C2.50947 21.627 2.27783 21.8586 2.27783 22.1443C2.27783 22.4301 2.50947 22.6617 2.7952 22.6617Z" fill="#1F2348" fill-opacity="0.5" />
    <path d="M1.34647 19.5562C1.63221 19.5562 1.86385 19.3246 1.86385 19.0389C1.86385 18.7531 1.63221 18.5215 1.34647 18.5215C1.06074 18.5215 0.829102 18.7531 0.829102 19.0389C0.829102 19.3246 1.06074 19.5562 1.34647 19.5562Z" fill="#1F2348" fill-opacity="0.5" />
    <path d="M3.82987 18.6246C4.11561 18.6246 4.34724 18.393 4.34724 18.1072C4.34724 17.8215 4.11561 17.5898 3.82987 17.5898C3.54414 17.5898 3.3125 17.8215 3.3125 18.1072C3.3125 18.393 3.54414 18.6246 3.82987 18.6246Z" fill="#1F2348" fill-opacity="0.5" />
    <path d="M5.58866 20.0738C5.8744 20.0738 6.10603 19.8422 6.10603 19.5564C6.10603 19.2707 5.8744 19.0391 5.58866 19.0391C5.30292 19.0391 5.07129 19.2707 5.07129 19.5564C5.07129 19.8422 5.30292 20.0738 5.58866 20.0738Z" fill="#1F2348" fill-opacity="0.5" />
    <path d="M7.34794 21.109C7.63368 21.109 7.86531 20.8773 7.86531 20.5916C7.86531 20.3059 7.63368 20.0742 7.34794 20.0742C7.0622 20.0742 6.83057 20.3059 6.83057 20.5916C6.83057 20.8773 7.0622 21.109 7.34794 21.109Z" fill="#1F2348" fill-opacity="0.5" />
    <path d="M4.55399 26.1773C4.83973 26.1773 5.07136 25.9457 5.07136 25.66C5.07136 25.3742 4.83973 25.1426 4.55399 25.1426C4.26826 25.1426 4.03662 25.3742 4.03662 25.66C4.03662 25.9457 4.26826 26.1773 4.55399 26.1773Z" fill="#1F2348" fill-opacity="0.5" />
    <path d="M4.55399 28.2496C4.83973 28.2496 5.07136 28.018 5.07136 27.7322C5.07136 27.4465 4.83973 27.2148 4.55399 27.2148C4.26826 27.2148 4.03662 27.4465 4.03662 27.7322C4.03662 28.018 4.26826 28.2496 4.55399 28.2496Z" fill="#1F2348" fill-opacity="0.5" />
    <path d="M6.62431 27.2144C6.91004 27.2144 7.14168 26.9828 7.14168 26.6971C7.14168 26.4113 6.91004 26.1797 6.62431 26.1797C6.33857 26.1797 6.10693 26.4113 6.10693 26.6971C6.10693 26.9828 6.33857 27.2144 6.62431 27.2144Z" fill="#1F2348" fill-opacity="0.5" />
    <path d="M8.79667 24.109C9.08241 24.109 9.31404 23.8773 9.31404 23.5916C9.31404 23.3059 9.08241 23.0742 8.79667 23.0742C8.51093 23.0742 8.2793 23.3059 8.2793 23.5916C8.2793 23.8773 8.51093 24.109 8.79667 24.109Z" fill="#1F2348" fill-opacity="0.5" />
    <path d="M10.7635 27.2144C11.0492 27.2144 11.2808 26.9828 11.2808 26.6971C11.2808 26.4113 11.0492 26.1797 10.7635 26.1797C10.4777 26.1797 10.2461 26.4113 10.2461 26.6971C10.2461 26.9828 10.4777 27.2144 10.7635 27.2144Z" fill="#1F2348" fill-opacity="0.5" />
    <path d="M10.9695 29.2828C11.2553 29.2828 11.4869 29.0512 11.4869 28.7654C11.4869 28.4797 11.2553 28.248 10.9695 28.248C10.6838 28.248 10.4521 28.4797 10.4521 28.7654C10.4521 29.0512 10.6838 29.2828 10.9695 29.2828Z" fill="#1F2348" fill-opacity="0.5" />
    <path d="M0.518837 29.8004C0.804573 29.8004 1.03621 29.5687 1.03621 29.283C1.03621 28.9973 0.804573 28.7656 0.518837 28.7656C0.2331 28.7656 0.00146484 28.9973 0.00146484 29.283C0.00146484 29.5687 0.2331 29.8004 0.518837 29.8004Z" fill="#E9B213" />
    <path d="M11.3846 31.2496C11.6703 31.2496 11.9019 31.018 11.9019 30.7322C11.9019 30.4465 11.6703 30.2148 11.3846 30.2148C11.0988 30.2148 10.8672 30.4465 10.8672 30.7322C10.8672 31.018 11.0988 31.2496 11.3846 31.2496Z" fill="#0582CA" />
    <path d="M5.8997 34.3531C6.18543 34.3531 6.41707 34.1215 6.41707 33.8357C6.41707 33.55 6.18543 33.3184 5.8997 33.3184C5.61396 33.3184 5.38232 33.55 5.38232 33.8357C5.38232 34.1215 5.61396 34.3531 5.8997 34.3531Z" fill="#1F2348" fill-opacity="0.5" />
    <path d="M8.58915 35.2847C8.87489 35.2847 9.10652 35.0531 9.10652 34.7674C9.10652 34.4816 8.87489 34.25 8.58915 34.25C8.30341 34.25 8.07178 34.4816 8.07178 34.7674C8.07178 35.0531 8.30341 35.2847 8.58915 35.2847Z" fill="#1F2348" fill-opacity="0.5" />
    <path d="M4.65751 36.732C4.94325 36.732 5.17488 36.5004 5.17488 36.2146C5.17488 35.9289 4.94325 35.6973 4.65751 35.6973C4.37177 35.6973 4.14014 35.9289 4.14014 36.2146C4.14014 36.5004 4.37177 36.732 4.65751 36.732Z" fill="#1F2348" fill-opacity="0.5" />
    <path d="M7.762 38.0777C8.04774 38.0777 8.27937 37.8461 8.27937 37.5603C8.27937 37.2746 8.04774 37.043 7.762 37.043C7.47626 37.043 7.24463 37.2746 7.24463 37.5603C7.24463 37.8461 7.47626 38.0777 7.762 38.0777Z" fill="#1F2348" fill-opacity="0.5" />
    <path d="M9.52079 37.0445C9.80653 37.0445 10.0382 36.8129 10.0382 36.5271C10.0382 36.2414 9.80653 36.0098 9.52079 36.0098C9.23505 36.0098 9.00342 36.2414 9.00342 36.5271C9.00342 36.8129 9.23505 37.0445 9.52079 37.0445Z" fill="#1F2348" fill-opacity="0.5" />
    <path d="M12.5223 37.6637C12.808 37.6637 13.0396 37.432 13.0396 37.1463C13.0396 36.8605 12.808 36.6289 12.5223 36.6289C12.2365 36.6289 12.0049 36.8605 12.0049 37.1463C12.0049 37.432 12.2365 37.6637 12.5223 37.6637Z" fill="#1F2348" fill-opacity="0.5" />
    <path d="M13.1433 34.9742C13.4291 34.9742 13.6607 34.7426 13.6607 34.4568C13.6607 34.1711 13.4291 33.9395 13.1433 33.9395C12.8576 33.9395 12.626 34.1711 12.626 34.4568C12.626 34.7426 12.8576 34.9742 13.1433 34.9742Z" fill="#1F2348" fill-opacity="0.5" />
    <path d="M14.3841 36.6304C14.6698 36.6304 14.9014 36.3988 14.9014 36.1131C14.9014 35.8273 14.6698 35.5957 14.3841 35.5957C14.0983 35.5957 13.8667 35.8273 13.8667 36.1131C13.8667 36.3988 14.0983 36.6304 14.3841 36.6304Z" fill="#1F2348" fill-opacity="0.5" />
    <path d="M13.971 39.2164C14.2567 39.2164 14.4884 38.9847 14.4884 38.699C14.4884 38.4133 14.2567 38.1816 13.971 38.1816C13.6852 38.1816 13.4536 38.4133 13.4536 38.699C13.4536 38.9847 13.6852 39.2164 13.971 39.2164Z" fill="#1F2348" fill-opacity="0.5" />
    <path d="M19.1448 40.3551C19.4306 40.3551 19.6622 40.1234 19.6622 39.8377C19.6622 39.5519 19.4306 39.3203 19.1448 39.3203C18.8591 39.3203 18.6274 39.5519 18.6274 39.8377C18.6274 40.1234 18.8591 40.3551 19.1448 40.3551Z" fill="#1F2348" fill-opacity="0.5" />
    <path d="M16.9715 46.2535C17.2572 46.2535 17.4888 46.0219 17.4888 45.7361C17.4888 45.4504 17.2572 45.2188 16.9715 45.2188C16.6857 45.2188 16.4541 45.4504 16.4541 45.7361C16.4541 46.0219 16.6857 46.2535 16.9715 46.2535Z" fill="#1F2348" fill-opacity="0.5" />
    <path d="M20.9036 45.4254C21.1893 45.4254 21.421 45.1937 21.421 44.908C21.421 44.6223 21.1893 44.3906 20.9036 44.3906C20.6179 44.3906 20.3862 44.6223 20.3862 44.908C20.3862 45.1937 20.6179 45.4254 20.9036 45.4254Z" fill="#1F2348" fill-opacity="0.5" />
    <path d="M21.0066 43.3551C21.2924 43.3551 21.524 43.1234 21.524 42.8377C21.524 42.5519 21.2924 42.3203 21.0066 42.3203C20.7209 42.3203 20.4893 42.5519 20.4893 42.8377C20.4893 43.1234 20.7209 43.3551 21.0066 43.3551Z" fill="#1F2348" fill-opacity="0.5" />
    <path d="M22.9734 43.7691C23.2592 43.7691 23.4908 43.5375 23.4908 43.2517C23.4908 42.966 23.2592 42.7344 22.9734 42.7344C22.6877 42.7344 22.4561 42.966 22.4561 43.2517C22.4561 43.5375 22.6877 43.7691 22.9734 43.7691Z" fill="#E9B213" />
    <path d="M25.0418 42.0094C25.3275 42.0094 25.5592 41.7777 25.5592 41.492C25.5592 41.2062 25.3275 40.9746 25.0418 40.9746C24.756 40.9746 24.5244 41.2062 24.5244 41.492C24.5244 41.7777 24.756 42.0094 25.0418 42.0094Z" fill="#1F2348" fill-opacity="0.5" />
    <path d="M27.1111 44.0797C27.3969 44.0797 27.6285 43.848 27.6285 43.5623C27.6285 43.2766 27.3969 43.0449 27.1111 43.0449C26.8254 43.0449 26.5938 43.2766 26.5938 43.5623C26.5938 43.848 26.8254 44.0797 27.1111 44.0797Z" fill="#1F2348" fill-opacity="0.5" />
    <path d="M29.0779 41.7008C29.3637 41.7008 29.5953 41.4691 29.5953 41.1834C29.5953 40.8977 29.3637 40.666 29.0779 40.666C28.7922 40.666 28.5605 40.8977 28.5605 41.1834C28.5605 41.4691 28.7922 41.7008 29.0779 41.7008Z" fill="#1F2348" fill-opacity="0.5" />
    <path d="M31.1473 45.4254C31.433 45.4254 31.6646 45.1937 31.6646 44.908C31.6646 44.6223 31.433 44.3906 31.1473 44.3906C30.8615 44.3906 30.6299 44.6223 30.6299 44.908C30.6299 45.1937 30.8615 45.4254 31.1473 45.4254Z" fill="#1F2348" fill-opacity="0.5" />
    <path d="M33.0091 40.3551C33.2948 40.3551 33.5264 40.1234 33.5264 39.8377C33.5264 39.5519 33.2948 39.3203 33.0091 39.3203C32.7233 39.3203 32.4917 39.5519 32.4917 39.8377C32.4917 40.1234 32.7233 40.3551 33.0091 40.3551Z" fill="#1F2348" fill-opacity="0.5" />
    <path d="M34.8719 41.7008C35.1576 41.7008 35.3892 41.4691 35.3892 41.1834C35.3892 40.8977 35.1576 40.666 34.8719 40.666C34.5861 40.666 34.3545 40.8977 34.3545 41.1834C34.3545 41.4691 34.5861 41.7008 34.8719 41.7008Z" fill="#0582CA" />
    <path d="M36.9412 45.2183C37.2269 45.2183 37.4586 44.9867 37.4586 44.701C37.4586 44.4152 37.2269 44.1836 36.9412 44.1836C36.6555 44.1836 36.4238 44.4152 36.4238 44.701C36.4238 44.9867 36.6555 45.2183 36.9412 45.2183Z" fill="#1F2348" fill-opacity="0.5" />
    <path d="M38.701 44.0797C38.9867 44.0797 39.2183 43.848 39.2183 43.5623C39.2183 43.2766 38.9867 43.0449 38.701 43.0449C38.4152 43.0449 38.1836 43.2766 38.1836 43.5623C38.1836 43.848 38.4152 44.0797 38.701 44.0797Z" fill="#1F2348" fill-opacity="0.5" />
    <path d="M38.1839 39.1129C38.4696 39.1129 38.7012 38.8812 38.7012 38.5955C38.7012 38.3098 38.4696 38.0781 38.1839 38.0781C37.8981 38.0781 37.6665 38.3098 37.6665 38.5955C37.6665 38.8812 37.8981 39.1129 38.1839 39.1129Z" fill="#1F2348" fill-opacity="0.5" />
    <path d="M37.7698 36.5269C38.0556 36.5269 38.2872 36.2953 38.2872 36.0096C38.2872 35.7238 38.0556 35.4922 37.7698 35.4922C37.4841 35.4922 37.2524 35.7238 37.2524 36.0096C37.2524 36.2953 37.4841 36.5269 37.7698 36.5269Z" fill="#1F2348" fill-opacity="0.5" />
    <path d="M41.3914 38.6988C41.6771 38.6988 41.9088 38.4672 41.9088 38.1814C41.9088 37.8957 41.6771 37.6641 41.3914 37.6641C41.1057 37.6641 40.874 37.8957 40.874 38.1814C40.874 38.4672 41.1057 38.6988 41.3914 38.6988Z" fill="#1F2348" fill-opacity="0.5" />
    <path d="M42.7361 43.3551C43.0219 43.3551 43.2535 43.1234 43.2535 42.8377C43.2535 42.5519 43.0219 42.3203 42.7361 42.3203C42.4504 42.3203 42.2188 42.5519 42.2188 42.8377C42.2188 43.1234 42.4504 43.3551 42.7361 43.3551Z" fill="#1F2348" fill-opacity="0.5" />
    <path d="M43.1502 39.734C43.4359 39.734 43.6676 39.5023 43.6676 39.2166C43.6676 38.9309 43.4359 38.6992 43.1502 38.6992C42.8644 38.6992 42.6328 38.9309 42.6328 39.2166C42.6328 39.5023 42.8644 39.734 43.1502 39.734Z" fill="#1F2348" fill-opacity="0.5" />
    <path d="M44.0818 41.8043C44.3676 41.8043 44.5992 41.5726 44.5992 41.2869C44.5992 41.0012 44.3676 40.7695 44.0818 40.7695C43.7961 40.7695 43.5645 41.0012 43.5645 41.2869C43.5645 41.5726 43.7961 41.8043 44.0818 41.8043Z" fill="#1F2348" fill-opacity="0.5" />
    <path d="M45.9441 42.941C46.2299 42.941 46.4615 42.7094 46.4615 42.4236C46.4615 42.1379 46.2299 41.9062 45.9441 41.9062C45.6584 41.9062 45.4268 42.1379 45.4268 42.4236C45.4268 42.7094 45.6584 42.941 45.9441 42.941Z" fill="#1F2348" fill-opacity="0.5" />
    <path d="M45.4275 40.2515C45.7133 40.2515 45.9449 40.0199 45.9449 39.7342C45.9449 39.4484 45.7133 39.2168 45.4275 39.2168C45.1418 39.2168 44.9102 39.4484 44.9102 39.7342C44.9102 40.0199 45.1418 40.2515 45.4275 40.2515Z" fill="#1F2348" fill-opacity="0.5" />
    <path d="M43.5647 35.1812C43.8505 35.1812 44.0821 34.9496 44.0821 34.6639C44.0821 34.3781 43.8505 34.1465 43.5647 34.1465C43.279 34.1465 43.0474 34.3781 43.0474 34.6639C43.0474 34.9496 43.279 35.1812 43.5647 35.1812Z" fill="#1F2348" fill-opacity="0.5" />
    <path d="M40.7703 36.0094C41.056 36.0094 41.2877 35.7777 41.2877 35.492C41.2877 35.2062 41.056 34.9746 40.7703 34.9746C40.4846 34.9746 40.2529 35.2062 40.2529 35.492C40.2529 35.7777 40.4846 36.0094 40.7703 36.0094Z" fill="#1F2348" fill-opacity="0.5" />
    <path d="M38.908 34.9742C39.1937 34.9742 39.4254 34.7426 39.4254 34.4568C39.4254 34.1711 39.1937 33.9395 38.908 33.9395C38.6223 33.9395 38.3906 34.1711 38.3906 34.4568C38.3906 34.7426 38.6223 34.9742 38.908 34.9742Z" fill="#1F2348" fill-opacity="0.5" />
    <path d="M41.7015 34.1461C41.9872 34.1461 42.2188 33.9144 42.2188 33.6287C42.2188 33.343 41.9872 33.1113 41.7015 33.1113C41.4157 33.1113 41.1841 33.343 41.1841 33.6287C41.1841 33.9144 41.4157 34.1461 41.7015 34.1461Z" fill="#21BCA5" />
    <path d="M46.1512 34.3531C46.4369 34.3531 46.6685 34.1215 46.6685 33.8357C46.6685 33.55 46.4369 33.3184 46.1512 33.3184C45.8654 33.3184 45.6338 33.55 45.6338 33.8357C45.6338 34.1215 45.8654 34.3531 46.1512 34.3531Z" fill="#1F2348" fill-opacity="0.5" />
    <path d="M18.1092 44.3902C18.3949 44.3902 18.6265 44.1586 18.6265 43.8728C18.6265 43.5871 18.3949 43.3555 18.1092 43.3555C17.8234 43.3555 17.5918 43.5871 17.5918 43.8728C17.5918 44.1586 17.8234 44.3902 18.1092 44.3902Z" fill="#1F2348" fill-opacity="0.5" />
    <path d="M14.281 47.0816C14.5668 47.0816 14.7984 46.85 14.7984 46.5642C14.7984 46.2785 14.5668 46.0469 14.281 46.0469C13.9953 46.0469 13.7637 46.2785 13.7637 46.5642C13.7637 46.85 13.9953 47.0816 14.281 47.0816Z" fill="#1F2348" fill-opacity="0.5" />
    <path d="M10.6585 47.1832C10.9442 47.1832 11.1759 46.9515 11.1759 46.6658C11.1759 46.3801 10.9442 46.1484 10.6585 46.1484C10.3727 46.1484 10.1411 46.3801 10.1411 46.6658C10.1411 46.9515 10.3727 47.1832 10.6585 47.1832Z" fill="#1F2348" fill-opacity="0.5" />
    <path d="M9.10673 45.9429C9.39246 45.9429 9.6241 45.7113 9.6241 45.4256C9.6241 45.1398 9.39246 44.9082 9.10673 44.9082C8.82099 44.9082 8.58936 45.1398 8.58936 45.4256C8.58936 45.7113 8.82099 45.9429 9.10673 45.9429Z" fill="#1F2348" fill-opacity="0.5" />
    <path d="M18.0061 48.8394C18.2919 48.8394 18.5235 48.6078 18.5235 48.3221C18.5235 48.0363 18.2919 47.8047 18.0061 47.8047C17.7204 47.8047 17.4888 48.0363 17.4888 48.3221C17.4888 48.6078 17.7204 48.8394 18.0061 48.8394Z" fill="#1F2348" fill-opacity="0.5" />
    <path d="M22.0413 47.8043C22.327 47.8043 22.5587 47.5726 22.5587 47.2869C22.5587 47.0012 22.327 46.7695 22.0413 46.7695C21.7556 46.7695 21.5239 47.0012 21.5239 47.2869C21.5239 47.5726 21.7556 47.8043 22.0413 47.8043Z" fill="#1F2348" fill-opacity="0.5" />
    <path d="M28.2498 46.0445C28.5355 46.0445 28.7672 45.8129 28.7672 45.5271C28.7672 45.2414 28.5355 45.0098 28.2498 45.0098C27.9641 45.0098 27.7324 45.2414 27.7324 45.5271C27.7324 45.8129 27.9641 46.0445 28.2498 46.0445Z" fill="#1F2348" fill-opacity="0.5" />
    <path d="M26.1805 48.2203C26.4662 48.2203 26.6978 47.9887 26.6978 47.7029C26.6978 47.4172 26.4662 47.1855 26.1805 47.1855C25.8947 47.1855 25.6631 47.4172 25.6631 47.7029C25.6631 47.9887 25.8947 48.2203 26.1805 48.2203Z" fill="#1F2348" fill-opacity="0.5" />
    <path d="M36.1136 48.1148C36.3993 48.1148 36.6309 47.8832 36.6309 47.5975C36.6309 47.3117 36.3993 47.0801 36.1136 47.0801C35.8278 47.0801 35.5962 47.3117 35.5962 47.5975C35.5962 47.8832 35.8278 48.1148 36.1136 48.1148Z" fill="#1F2348" fill-opacity="0.5" />
    <path d="M38.0799 49.357C38.3656 49.357 38.5972 49.1254 38.5972 48.8396C38.5972 48.5539 38.3656 48.3223 38.0799 48.3223C37.7941 48.3223 37.5625 48.5539 37.5625 48.8396C37.5625 49.1254 37.7941 49.357 38.0799 49.357Z" fill="#1F2348" fill-opacity="0.5" />
    <path d="M34.2508 48.8394C34.5365 48.8394 34.7681 48.6078 34.7681 48.3221C34.7681 48.0363 34.5365 47.8047 34.2508 47.8047C33.965 47.8047 33.7334 48.0363 33.7334 48.3221C33.7334 48.6078 33.965 48.8394 34.2508 48.8394Z" fill="#21BCA5" />
    <path d="M9.62479 40.5621C9.91053 40.5621 10.1422 40.3305 10.1422 40.0447C10.1422 39.759 9.91053 39.5273 9.62479 39.5273C9.33906 39.5273 9.10742 39.759 9.10742 40.0447C9.10742 40.3305 9.33906 40.5621 9.62479 40.5621Z" fill="#1F2348" fill-opacity="0.5" />
    <path d="M14.281 44.7008C14.5668 44.7008 14.7984 44.4691 14.7984 44.1834C14.7984 43.8977 14.5668 43.666 14.281 43.666C13.9953 43.666 13.7637 43.8977 13.7637 44.1834C13.7637 44.4691 13.9953 44.7008 14.281 44.7008Z" fill="#1F2348" fill-opacity="0.5" />
    <path d="M47.3929 36.6304C47.6786 36.6304 47.9102 36.3988 47.9102 36.1131C47.9102 35.8273 47.6786 35.5957 47.3929 35.5957C47.1071 35.5957 46.8755 35.8273 46.8755 36.1131C46.8755 36.3988 47.1071 36.6304 47.3929 36.6304Z" fill="#1F2348" fill-opacity="0.5" />
    <path d="M49.2557 37.6637C49.5414 37.6637 49.773 37.432 49.773 37.1463C49.773 36.8605 49.5414 36.6289 49.2557 36.6289C48.9699 36.6289 48.7383 36.8605 48.7383 37.1463C48.7383 37.432 48.9699 37.6637 49.2557 37.6637Z" fill="#1F2348" fill-opacity="0.5" />
    <path d="M49.9798 35.8023C50.2655 35.8023 50.4971 35.5707 50.4971 35.285C50.4971 34.9992 50.2655 34.7676 49.9798 34.7676C49.694 34.7676 49.4624 34.9992 49.4624 35.285C49.4624 35.5707 49.694 35.8023 49.9798 35.8023Z" fill="#1F2348" fill-opacity="0.5" />
    <path d="M46.8753 32.3863C47.161 32.3863 47.3927 32.1547 47.3927 31.8689C47.3927 31.5832 47.161 31.3516 46.8753 31.3516C46.5895 31.3516 46.3579 31.5832 46.3579 31.8689C46.3579 32.1547 46.5895 32.3863 46.8753 32.3863Z" fill="#1F2348" fill-opacity="0.5" />
    <path d="M44.91 31.2496C45.1957 31.2496 45.4273 31.018 45.4273 30.7322C45.4273 30.4465 45.1957 30.2148 44.91 30.2148C44.6242 30.2148 44.3926 30.4465 44.3926 30.7322C44.3926 31.018 44.6242 31.2496 44.91 31.2496Z" fill="#1F2348" fill-opacity="0.5" />
    <path d="M43.0467 30.2144C43.3324 30.2144 43.564 29.9828 43.564 29.6971C43.564 29.4113 43.3324 29.1797 43.0467 29.1797C42.7609 29.1797 42.5293 29.4113 42.5293 29.6971C42.5293 29.9828 42.7609 30.2144 43.0467 30.2144Z" fill="#1F2348" fill-opacity="0.5" />
    <path d="M43.3572 28.2496C43.643 28.2496 43.8746 28.018 43.8746 27.7322C43.8746 27.4465 43.643 27.2148 43.3572 27.2148C43.0715 27.2148 42.8398 27.4465 42.8398 27.7322C42.8398 28.018 43.0715 28.2496 43.3572 28.2496Z" fill="#1F2348" fill-opacity="0.5" />
    <path d="M41.2884 27.2144C41.5741 27.2144 41.8057 26.9828 41.8057 26.6971C41.8057 26.4113 41.5741 26.1797 41.2884 26.1797C41.0026 26.1797 40.771 26.4113 40.771 26.6971C40.771 26.9828 41.0026 27.2144 41.2884 27.2144Z" fill="#1F2348" fill-opacity="0.5" />
    <path d="M47.4949 26.1773C47.7806 26.1773 48.0123 25.9457 48.0123 25.66C48.0123 25.3742 47.7806 25.1426 47.4949 25.1426C47.2092 25.1426 46.9775 25.3742 46.9775 25.66C46.9775 25.9457 47.2092 26.1773 47.4949 26.1773Z" fill="#1F2348" fill-opacity="0.5" />
    <path d="M49.6687 26.6969C49.9545 26.6969 50.1861 26.4652 50.1861 26.1795C50.1861 25.8937 49.9545 25.6621 49.6687 25.6621C49.383 25.6621 49.1514 25.8937 49.1514 26.1795C49.1514 26.4652 49.383 26.6969 49.6687 26.6969Z" fill="#1F2348" fill-opacity="0.5" />
    <path d="M51.635 25.6617C51.9208 25.6617 52.1524 25.4301 52.1524 25.1443C52.1524 24.8586 51.9208 24.627 51.635 24.627C51.3493 24.627 51.1177 24.8586 51.1177 25.1443C51.1177 25.4301 51.3493 25.6617 51.635 25.6617Z" fill="#21BCA5" />
    <path d="M45.1155 23.0738C45.4013 23.0738 45.6329 22.8422 45.6329 22.5564C45.6329 22.2707 45.4013 22.0391 45.1155 22.0391C44.8298 22.0391 44.5981 22.2707 44.5981 22.5564C44.5981 22.8422 44.8298 23.0738 45.1155 23.0738Z" fill="#1F2348" fill-opacity="0.5" />
    <path d="M42.8391 22.1441C43.1249 22.1441 43.3565 21.9125 43.3565 21.6267C43.3565 21.341 43.1249 21.1094 42.8391 21.1094C42.5534 21.1094 42.3218 21.341 42.3218 21.6267C42.3218 21.9125 42.5534 22.1441 42.8391 22.1441Z" fill="#1F2348" fill-opacity="0.5" />
    <path d="M48.8416 20.5894C49.1273 20.5894 49.359 20.3578 49.359 20.0721C49.359 19.7863 49.1273 19.5547 48.8416 19.5547C48.5559 19.5547 48.3242 19.7863 48.3242 20.0721C48.3242 20.3578 48.5559 20.5894 48.8416 20.5894Z" fill="#1F2348" fill-opacity="0.5" />
    <path d="M50.7034 19.5562C50.9891 19.5562 51.2208 19.3246 51.2208 19.0389C51.2208 18.7531 50.9891 18.5215 50.7034 18.5215C50.4177 18.5215 50.186 18.7531 50.186 19.0389C50.186 19.3246 50.4177 19.5562 50.7034 19.5562Z" fill="#1F2348" fill-opacity="0.5" />
    <path d="M48.221 18.6246C48.5067 18.6246 48.7384 18.393 48.7384 18.1072C48.7384 17.8215 48.5067 17.5898 48.221 17.5898C47.9352 17.5898 47.7036 17.8215 47.7036 18.1072C47.7036 18.393 47.9352 18.6246 48.221 18.6246Z" fill="#0582CA" />
    <path d="M42.116 20.1773C42.4017 20.1773 42.6334 19.9457 42.6334 19.66C42.6334 19.3742 42.4017 19.1426 42.116 19.1426C41.8303 19.1426 41.5986 19.3742 41.5986 19.66C41.5986 19.9457 41.8303 20.1773 42.116 20.1773Z" fill="#1F2348" fill-opacity="0.5" />
    <path d="M43.0467 17.2808C43.3324 17.2808 43.564 17.0492 43.564 16.7635C43.564 16.4777 43.3324 16.2461 43.0467 16.2461C42.7609 16.2461 42.5293 16.4777 42.5293 16.7635C42.5293 17.0492 42.7609 17.2808 43.0467 17.2808Z" fill="#1F2348" fill-opacity="0.5" />
    <path d="M40.1497 16.5562C40.4354 16.5562 40.6671 16.3246 40.6671 16.0389C40.6671 15.7531 40.4354 15.5215 40.1497 15.5215C39.864 15.5215 39.6323 15.7531 39.6323 16.0389C39.6323 16.3246 39.864 16.5562 40.1497 16.5562Z" fill="#1F2348" fill-opacity="0.5" />
    <path d="M38.3899 17.5894C38.6757 17.5894 38.9073 17.3578 38.9073 17.0721C38.9073 16.7863 38.6757 16.5547 38.3899 16.5547C38.1042 16.5547 37.8726 16.7863 37.8726 17.0721C37.8726 17.3578 38.1042 17.5894 38.3899 17.5894Z" fill="#1F2348" fill-opacity="0.5" />
    <path d="M39.5286 19.3492C39.8143 19.3492 40.046 19.1176 40.046 18.8318C40.046 18.5461 39.8143 18.3145 39.5286 18.3145C39.2429 18.3145 39.0112 18.5461 39.0112 18.8318C39.0112 19.1176 39.2429 19.3492 39.5286 19.3492Z" fill="#21BCA5" />
    <path d="M38.804 15.0035C39.0897 15.0035 39.3214 14.7719 39.3214 14.4861C39.3214 14.2004 39.0897 13.9688 38.804 13.9688C38.5183 13.9688 38.2866 14.2004 38.2866 14.4861C38.2866 14.7719 38.5183 15.0035 38.804 15.0035Z" fill="#1F2348" fill-opacity="0.5" />
    <path d="M40.9773 23.1773C41.2631 23.1773 41.4947 22.9457 41.4947 22.66C41.4947 22.3742 41.2631 22.1426 40.9773 22.1426C40.6916 22.1426 40.46 22.3742 40.46 22.66C40.46 22.9457 40.6916 23.1773 40.9773 23.1773Z" fill="#1F2348" fill-opacity="0.5" />
    <path d="M39.9427 40.2515C40.2284 40.2515 40.46 40.0199 40.46 39.7342C40.46 39.4484 40.2284 39.2168 39.9427 39.2168C39.6569 39.2168 39.4253 39.4484 39.4253 39.7342C39.4253 40.0199 39.6569 40.2515 39.9427 40.2515Z" fill="#1F2348" fill-opacity="0.5" />
    <path d="M40.3567 42.8375C40.6425 42.8375 40.8741 42.6058 40.8741 42.3201C40.8741 42.0344 40.6425 41.8027 40.3567 41.8027C40.071 41.8027 39.8394 42.0344 39.8394 42.3201C39.8394 42.6058 40.071 42.8375 40.3567 42.8375Z" fill="#E9B213" />
    <path d="M34.6648 39.3199C34.9506 39.3199 35.1822 39.0883 35.1822 38.8025C35.1822 38.5168 34.9506 38.2852 34.6648 38.2852C34.3791 38.2852 34.1475 38.5168 34.1475 38.8025C34.1475 39.0883 34.3791 39.3199 34.6648 39.3199Z" fill="#1F2348" fill-opacity="0.5" />
    <path d="M35.0794 43.9762C35.3651 43.9762 35.5968 43.7445 35.5968 43.4588C35.5968 43.173 35.3651 42.9414 35.0794 42.9414C34.7936 42.9414 34.562 43.173 34.562 43.4588C34.562 43.7445 34.7936 43.9762 35.0794 43.9762Z" fill="#1F2348" fill-opacity="0.5" />
    <path d="M6.72733 40.2515C7.01307 40.2515 7.2447 40.0199 7.2447 39.7342C7.2447 39.4484 7.01307 39.2168 6.72733 39.2168C6.4416 39.2168 6.20996 39.4484 6.20996 39.7342C6.20996 40.0199 6.4416 40.2515 6.72733 40.2515Z" fill="#1F2348" fill-opacity="0.5" />
    <path d="M6.20975 42.941C6.49549 42.941 6.72713 42.7094 6.72713 42.4236C6.72713 42.1379 6.49549 41.9062 6.20975 41.9062C5.92402 41.9062 5.69238 42.1379 5.69238 42.4236C5.69238 42.7094 5.92402 42.941 6.20975 42.941Z" fill="#E9B213" />
    <path d="M9.41776 43.3551C9.7035 43.3551 9.93513 43.1234 9.93513 42.8377C9.93513 42.5519 9.7035 42.3203 9.41776 42.3203C9.13203 42.3203 8.90039 42.5519 8.90039 42.8377C8.90039 43.1234 9.13203 43.3551 9.41776 43.3551Z" fill="#1F2348" fill-opacity="0.5" />
    <path d="M11.7972 42.8375C12.0829 42.8375 12.3145 42.6058 12.3145 42.3201C12.3145 42.0344 12.0829 41.8027 11.7972 41.8027C11.5114 41.8027 11.2798 42.0344 11.2798 42.3201C11.2798 42.6058 11.5114 42.8375 11.7972 42.8375Z" fill="#21BCA5" />
    <path d="M13.66 41.7008C13.9457 41.7008 14.1773 41.4691 14.1773 41.1834C14.1773 40.8977 13.9457 40.666 13.66 40.666C13.3742 40.666 13.1426 40.8977 13.1426 41.1834C13.1426 41.4691 13.3742 41.7008 13.66 41.7008Z" fill="#1F2348" fill-opacity="0.5" />
    <path d="M15.5227 40.5621C15.8085 40.5621 16.0401 40.3305 16.0401 40.0447C16.0401 39.759 15.8085 39.5273 15.5227 39.5273C15.237 39.5273 15.0054 39.759 15.0054 40.0447C15.0054 40.3305 15.237 40.5621 15.5227 40.5621Z" fill="#1F2348" fill-opacity="0.5" />
    <path d="M15.3157 42.941C15.6014 42.941 15.8331 42.7094 15.8331 42.4236C15.8331 42.1379 15.6014 41.9062 15.3157 41.9062C15.03 41.9062 14.7983 42.1379 14.7983 42.4236C14.7983 42.7094 15.03 42.941 15.3157 42.941Z" fill="#1F2348" fill-opacity="0.5" />
    <path d="M2.07059 35.8023C2.35633 35.8023 2.58797 35.5707 2.58797 35.285C2.58797 34.9992 2.35633 34.7676 2.07059 34.7676C1.78486 34.7676 1.55322 34.9992 1.55322 35.285C1.55322 35.5707 1.78486 35.8023 2.07059 35.8023Z" fill="#1F2348" fill-opacity="0.5" />
    <path d="M33.8377 13.5543C34.1234 13.5543 34.3551 13.3226 34.3551 13.0369C34.3551 12.7512 34.1234 12.5195 33.8377 12.5195C33.5519 12.5195 33.3203 12.7512 33.3203 13.0369C33.3203 13.3226 33.5519 13.5543 33.8377 13.5543Z" fill="#E9B213" />
    <path d="M35.7005 12.3121C35.9862 12.3121 36.2178 12.0805 36.2178 11.7947C36.2178 11.509 35.9862 11.2773 35.7005 11.2773C35.4147 11.2773 35.1831 11.509 35.1831 11.7947C35.1831 12.0805 35.4147 12.3121 35.7005 12.3121Z" fill="#1F2348" fill-opacity="0.5" />
    <path d="M33.9407 11.1754C34.2264 11.1754 34.4581 10.9437 34.4581 10.658C34.4581 10.3723 34.2264 10.1406 33.9407 10.1406C33.655 10.1406 33.4233 10.3723 33.4233 10.658C33.4233 10.9437 33.655 11.1754 33.9407 11.1754Z" fill="#1F2348" fill-opacity="0.5" />
    <path d="M34.0447 9.00154C34.3305 9.00154 34.5621 8.76991 34.5621 8.48417C34.5621 8.19843 34.3305 7.9668 34.0447 7.9668C33.759 7.9668 33.5273 8.19843 33.5273 8.48417C33.5273 8.76991 33.759 9.00154 34.0447 9.00154Z" fill="#1F2348" fill-opacity="0.5" />
    <path d="M30.1126 11.9C30.3983 11.9 30.63 11.6683 30.63 11.3826C30.63 11.0969 30.3983 10.8652 30.1126 10.8652C29.8269 10.8652 29.5952 11.0969 29.5952 11.3826C29.5952 11.6683 29.8269 11.9 30.1126 11.9Z" fill="#1F2348" fill-opacity="0.5" />
    <path d="M30.1126 7.65779C30.3983 7.65779 30.63 7.42616 30.63 7.14042C30.63 6.85468 30.3983 6.62305 30.1126 6.62305C29.8269 6.62305 29.5952 6.85468 29.5952 7.14042C29.5952 7.42616 29.8269 7.65779 30.1126 7.65779Z" fill="#1F2348" fill-opacity="0.5" />
    <path d="M34.1477 6.72615C34.4335 6.72615 34.6651 6.49451 34.6651 6.20878C34.6651 5.92304 34.4335 5.69141 34.1477 5.69141C33.862 5.69141 33.6304 5.92304 33.6304 6.20878C33.6304 6.49451 33.862 6.72615 34.1477 6.72615Z" fill="#1F2348" fill-opacity="0.5" />
    <path d="M36.0105 5.27693C36.2963 5.27693 36.5279 5.0453 36.5279 4.75956C36.5279 4.47382 36.2963 4.24219 36.0105 4.24219C35.7248 4.24219 35.4932 4.47382 35.4932 4.75956C35.4932 5.0453 35.7248 5.27693 36.0105 5.27693Z" fill="#1F2348" fill-opacity="0.5" />
    <path d="M37.8728 6.31209C38.1586 6.31209 38.3902 6.08045 38.3902 5.79472C38.3902 5.50898 38.1586 5.27734 37.8728 5.27734C37.5871 5.27734 37.3555 5.50898 37.3555 5.79472C37.3555 6.08045 37.5871 6.31209 37.8728 6.31209Z" fill="#1F2348" fill-opacity="0.5" />
    <path d="M41.4944 6.20857C41.7802 6.20857 42.0118 5.97694 42.0118 5.6912C42.0118 5.40546 41.7802 5.17383 41.4944 5.17383C41.2087 5.17383 40.9771 5.40546 40.9771 5.6912C40.9771 5.97694 41.2087 6.20857 41.4944 6.20857Z" fill="#1F2348" fill-opacity="0.5" />
    <path d="M43.0467 7.45076C43.3324 7.45076 43.564 7.21912 43.564 6.93339C43.564 6.64765 43.3324 6.41602 43.0467 6.41602C42.7609 6.41602 42.5293 6.64765 42.5293 6.93339C42.5293 7.21912 42.7609 7.45076 43.0467 7.45076Z" fill="#1F2348" fill-opacity="0.5" />
    <path d="M32.1819 6.10506C32.4677 6.10506 32.6993 5.87342 32.6993 5.58768C32.6993 5.30195 32.4677 5.07031 32.1819 5.07031C31.8962 5.07031 31.6646 5.30195 31.6646 5.58768C31.6646 5.87342 31.8962 6.10506 32.1819 6.10506Z" fill="#1F2348" fill-opacity="0.5" />
    <path d="M34.1477 4.55232C34.4335 4.55232 34.6651 4.32069 34.6651 4.03495C34.6651 3.74921 34.4335 3.51758 34.1477 3.51758C33.862 3.51758 33.6304 3.74921 33.6304 4.03495C33.6304 4.32069 33.862 4.55232 34.1477 4.55232Z" fill="#0582CA" />
    <path d="M36.1136 3.1031C36.3993 3.1031 36.6309 2.87147 36.6309 2.58573C36.6309 2.29999 36.3993 2.06836 36.1136 2.06836C35.8278 2.06836 35.5962 2.29999 35.5962 2.58573C35.5962 2.87147 35.8278 3.1031 36.1136 3.1031Z" fill="#1F2348" fill-opacity="0.5" />
    <path d="M30.1126 3.41365C30.3983 3.41365 30.63 3.18201 30.63 2.89628C30.63 2.61054 30.3983 2.37891 30.1126 2.37891C29.8269 2.37891 29.5952 2.61054 29.5952 2.89628C29.5952 3.18201 29.8269 3.41365 30.1126 3.41365Z" fill="#1F2348" fill-opacity="0.5" />
    <path d="M30.1126 5.58748C30.3983 5.58748 30.63 5.35584 30.63 5.07011C30.63 4.78437 30.3983 4.55273 30.1126 4.55273C29.8269 4.55273 29.5952 4.78437 29.5952 5.07011C29.5952 5.35584 29.8269 5.58748 30.1126 5.58748Z" fill="#1F2348" fill-opacity="0.5" />
    <path d="M28.1463 7.34529C28.432 7.34529 28.6637 7.11366 28.6637 6.82792C28.6637 6.54218 28.432 6.31055 28.1463 6.31055C27.8605 6.31055 27.6289 6.54218 27.6289 6.82792C27.6289 7.11366 27.8605 7.34529 28.1463 7.34529Z" fill="#21BCA5" />
    <path d="M23.9041 9.4156C24.1898 9.4156 24.4215 9.18397 24.4215 8.89823C24.4215 8.61249 24.1898 8.38086 23.9041 8.38086C23.6184 8.38086 23.3867 8.61249 23.3867 8.89823C23.3867 9.18397 23.6184 9.4156 23.9041 9.4156Z" fill="#1F2348" fill-opacity="0.5" />
    <path d="M23.9041 7.34529C24.1898 7.34529 24.4215 7.11366 24.4215 6.82792C24.4215 6.54218 24.1898 6.31055 23.9041 6.31055C23.6184 6.31055 23.3867 6.54218 23.3867 6.82792C23.3867 7.11366 23.6184 7.34529 23.9041 7.34529Z" fill="#1F2348" fill-opacity="0.5" />
    <path d="M25.9734 5.17342C26.2592 5.17342 26.4908 4.94178 26.4908 4.65604C26.4908 4.37031 26.2592 4.13867 25.9734 4.13867C25.6877 4.13867 25.4561 4.37031 25.4561 4.65604C25.4561 4.94178 25.6877 5.17342 25.9734 5.17342Z" fill="#1F2348" fill-opacity="0.5" />
    <path d="M25.9734 1.03474C26.2592 1.03474 26.4908 0.803109 26.4908 0.517372C26.4908 0.231635 26.2592 0 25.9734 0C25.6877 0 25.4561 0.231635 25.4561 0.517372C25.4561 0.803109 25.6877 1.03474 25.9734 1.03474Z" fill="#1F2348" fill-opacity="0.5" />
    <path d="M30.1126 1.34529C30.3983 1.34529 30.63 1.11366 30.63 0.827919C30.63 0.542182 30.3983 0.310547 30.1126 0.310547C29.8269 0.310547 29.5952 0.542182 29.5952 0.827919C29.5952 1.11366 29.8269 1.34529 30.1126 1.34529Z" fill="#1F2348" fill-opacity="0.5" />
    <path d="M21.9383 9.82967C22.224 9.82967 22.4556 9.59803 22.4556 9.31229C22.4556 9.02656 22.224 8.79492 21.9383 8.79492C21.6525 8.79492 21.4209 9.02656 21.4209 9.31229C21.4209 9.59803 21.6525 9.82967 21.9383 9.82967Z" fill="#E9B213" />
    <path d="M19.8689 6.10506C20.1547 6.10506 20.3863 5.87342 20.3863 5.58768C20.3863 5.30195 20.1547 5.07031 19.8689 5.07031C19.5832 5.07031 19.3516 5.30195 19.3516 5.58768C19.3516 5.87342 19.5832 6.10506 19.8689 6.10506Z" fill="#1F2348" fill-opacity="0.5" />
    <path d="M17.9031 9.00154C18.1889 9.00154 18.4205 8.76991 18.4205 8.48417C18.4205 8.19843 18.1889 7.9668 17.9031 7.9668C17.6174 7.9668 17.3857 8.19843 17.3857 8.48417C17.3857 8.76991 17.6174 9.00154 17.9031 9.00154Z" fill="#1F2348" fill-opacity="0.5" />
    <path d="M20.0755 12.6226C20.3612 12.6226 20.5928 12.391 20.5928 12.1053C20.5928 11.8195 20.3612 11.5879 20.0755 11.5879C19.7897 11.5879 19.5581 11.8195 19.5581 12.1053C19.5581 12.391 19.7897 12.6226 20.0755 12.6226Z" fill="#1F2348" fill-opacity="0.5" />
    <path d="M16.2474 12.3121C16.5331 12.3121 16.7647 12.0805 16.7647 11.7947C16.7647 11.509 16.5331 11.2773 16.2474 11.2773C15.9616 11.2773 15.73 11.509 15.73 11.7947C15.73 12.0805 15.9616 12.3121 16.2474 12.3121Z" fill="#1F2348" fill-opacity="0.5" />
    <path d="M14.3841 11.0719C14.6698 11.0719 14.9014 10.8402 14.9014 10.5545C14.9014 10.2687 14.6698 10.0371 14.3841 10.0371C14.0983 10.0371 13.8667 10.2687 13.8667 10.5545C13.8667 10.8402 14.0983 11.0719 14.3841 11.0719Z" fill="#1F2348" fill-opacity="0.5" />
    <path d="M12.8318 12.4176C13.1176 12.4176 13.3492 12.1859 13.3492 11.9002C13.3492 11.6144 13.1176 11.3828 12.8318 11.3828C12.5461 11.3828 12.3145 11.6144 12.3145 11.9002C12.3145 12.1859 12.5461 12.4176 12.8318 12.4176Z" fill="#1F2348" fill-opacity="0.5" />
    <path d="M12.5223 9.93318C12.808 9.93318 13.0396 9.70155 13.0396 9.41581C13.0396 9.13007 12.808 8.89844 12.5223 8.89844C12.2365 8.89844 12.0049 9.13007 12.0049 9.41581C12.0049 9.70155 12.2365 9.93318 12.5223 9.93318Z" fill="#0582CA" />
    <path d="M10.9695 11.2789C11.2553 11.2789 11.4869 11.0472 11.4869 10.7615C11.4869 10.4758 11.2553 10.2441 10.9695 10.2441C10.6838 10.2441 10.4521 10.4758 10.4521 10.7615C10.4521 11.0472 10.6838 11.2789 10.9695 11.2789Z" fill="#1F2348" fill-opacity="0.5" />
    <path d="M16.5574 14.6929C16.8431 14.6929 17.0748 14.4613 17.0748 14.1756C17.0748 13.8898 16.8431 13.6582 16.5574 13.6582C16.2717 13.6582 16.04 13.8898 16.04 14.1756C16.04 14.4613 16.2717 14.6929 16.5574 14.6929Z" fill="#1F2348" fill-opacity="0.5" />
    <path d="M13.1433 15.0035C13.4291 15.0035 13.6607 14.7719 13.6607 14.4861C13.6607 14.2004 13.4291 13.9688 13.1433 13.9688C12.8576 13.9688 12.626 14.2004 12.626 14.4861C12.626 14.7719 12.8576 15.0035 13.1433 15.0035Z" fill="#1F2348" fill-opacity="0.5" />
    <path d="M11.3846 13.8648C11.6703 13.8648 11.9019 13.6332 11.9019 13.3475C11.9019 13.0617 11.6703 12.8301 11.3846 12.8301C11.0988 12.8301 10.8672 13.0617 10.8672 13.3475C10.8672 13.6332 11.0988 13.8648 11.3846 13.8648Z" fill="#1F2348" fill-opacity="0.5" />
    <path d="M13.66 17.5894C13.9457 17.5894 14.1773 17.3578 14.1773 17.0721C14.1773 16.7863 13.9457 16.5547 13.66 16.5547C13.3742 16.5547 13.1426 16.7863 13.1426 17.0721C13.1426 17.3578 13.3742 17.5894 13.66 17.5894Z" fill="#1F2348" fill-opacity="0.5" />
    <path d="M10.7635 18.314C11.0492 18.314 11.2808 18.0824 11.2808 17.7967C11.2808 17.5109 11.0492 17.2793 10.7635 17.2793C10.4777 17.2793 10.2461 17.5109 10.2461 17.7967C10.2461 18.0824 10.4777 18.314 10.7635 18.314Z" fill="#1F2348" fill-opacity="0.5" />
    <path d="M9.93485 20.1773C10.2206 20.1773 10.4522 19.9457 10.4522 19.66C10.4522 19.3742 10.2206 19.1426 9.93485 19.1426C9.64912 19.1426 9.41748 19.3742 9.41748 19.66C9.41748 19.9457 9.64912 20.1773 9.93485 20.1773Z" fill="#1F2348" fill-opacity="0.5" />
    <path d="M11.6946 21.2125C11.9804 21.2125 12.212 20.9808 12.212 20.6951C12.212 20.4094 11.9804 20.1777 11.6946 20.1777C11.4089 20.1777 11.1772 20.4094 11.1772 20.6951C11.1772 20.9808 11.4089 21.2125 11.6946 21.2125Z" fill="#21BCA5" />
    <path d="M11.0725 23.1773C11.3583 23.1773 11.5899 22.9457 11.5899 22.66C11.5899 22.3742 11.3583 22.1426 11.0725 22.1426C10.7868 22.1426 10.5552 22.3742 10.5552 22.66C10.5552 22.9457 10.7868 23.1773 11.0725 23.1773Z" fill="#1F2348" fill-opacity="0.5" />
    <path d="M7.24442 16.2457C7.53016 16.2457 7.76179 16.014 7.76179 15.7283C7.76179 15.4426 7.53016 15.2109 7.24442 15.2109C6.95869 15.2109 6.72705 15.4426 6.72705 15.7283C6.72705 16.014 6.95869 16.2457 7.24442 16.2457Z" fill="#1F2348" fill-opacity="0.5" />
    <path d="M5.58866 14.9C5.8744 14.9 6.10603 14.6683 6.10603 14.3826C6.10603 14.0969 5.8744 13.8652 5.58866 13.8652C5.30292 13.8652 5.07129 14.0969 5.07129 14.3826C5.07129 14.6683 5.30292 14.9 5.58866 14.9Z" fill="#21BCA5" />
    <path d="M2.7952 15.7281C3.08094 15.7281 3.31258 15.4965 3.31258 15.2107C3.31258 14.925 3.08094 14.6934 2.7952 14.6934C2.50947 14.6934 2.27783 14.925 2.27783 15.2107C2.27783 15.4965 2.50947 15.7281 2.7952 15.7281Z" fill="#1F2348" fill-opacity="0.5" />
    <path d="M6.72733 13.1402C7.01307 13.1402 7.2447 12.9086 7.2447 12.6228C7.2447 12.3371 7.01307 12.1055 6.72733 12.1055C6.4416 12.1055 6.20996 12.3371 6.20996 12.6228C6.20996 12.9086 6.4416 13.1402 6.72733 13.1402Z" fill="#1F2348" fill-opacity="0.5" />
    <path d="M4.86503 12.1051C5.15076 12.1051 5.3824 11.8734 5.3824 11.5877C5.3824 11.3019 5.15076 11.0703 4.86503 11.0703C4.57929 11.0703 4.34766 11.3019 4.34766 11.5877C4.34766 11.8734 4.57929 12.1051 4.86503 12.1051Z" fill="#1F2348" fill-opacity="0.5" />
    <path d="M16.0403 7.65779C16.3261 7.65779 16.5577 7.42616 16.5577 7.14042C16.5577 6.85468 16.3261 6.62305 16.0403 6.62305C15.7546 6.62305 15.5229 6.85468 15.5229 7.14042C15.5229 7.42616 15.7546 7.65779 16.0403 7.65779Z" fill="#1F2348" fill-opacity="0.5" />
    <path d="M16.0403 5.27693C16.3261 5.27693 16.5577 5.0453 16.5577 4.75956C16.5577 4.47382 16.3261 4.24219 16.0403 4.24219C15.7546 4.24219 15.5229 4.47382 15.5229 4.75956C15.5229 5.0453 15.7546 5.27693 16.0403 5.27693Z" fill="#1F2348" fill-opacity="0.5" />
    <path d="M14.177 6.31209C14.4628 6.31209 14.6944 6.08045 14.6944 5.79472C14.6944 5.50898 14.4628 5.27734 14.177 5.27734C13.8913 5.27734 13.6597 5.50898 13.6597 5.79472C13.6597 6.08045 13.8913 6.31209 14.177 6.31209Z" fill="#1F2348" fill-opacity="0.5" />
    <path d="M14.074 4.03474C14.3597 4.03474 14.5914 3.80311 14.5914 3.51737C14.5914 3.23164 14.3597 3 14.074 3C13.7883 3 13.5566 3.23164 13.5566 3.51737C13.5566 3.80311 13.7883 4.03474 14.074 4.03474Z" fill="#1F2348" fill-opacity="0.5" />
    <path d="M17.9031 4.55232C18.1889 4.55232 18.4205 4.32069 18.4205 4.03495C18.4205 3.74921 18.1889 3.51758 17.9031 3.51758C17.6174 3.51758 17.3857 3.74921 17.3857 4.03495C17.3857 4.32069 17.6174 4.55232 17.9031 4.55232Z" fill="#1F2348" fill-opacity="0.5" />
    <path d="M28.0433 9.4156C28.329 9.4156 28.5606 9.18397 28.5606 8.89823C28.5606 8.61249 28.329 8.38086 28.0433 8.38086C27.7575 8.38086 27.5259 8.61249 27.5259 8.89823C27.5259 9.18397 27.7575 9.4156 28.0433 9.4156Z" fill="#1F2348" fill-opacity="0.5" />
    <path d="M39.5286 9.93318C39.8143 9.93318 40.046 9.70155 40.046 9.41581C40.046 9.13007 39.8143 8.89844 39.5286 8.89844C39.2429 8.89844 39.0112 9.13007 39.0112 9.41581C39.0112 9.70155 39.2429 9.93318 39.5286 9.93318Z" fill="#1F2348" fill-opacity="0.5" />
    <path d="M37.6658 11.0719C37.9515 11.0719 38.1832 10.8402 38.1832 10.5545C38.1832 10.2687 37.9515 10.0371 37.6658 10.0371C37.3801 10.0371 37.1484 10.2687 37.1484 10.5545C37.1484 10.8402 37.3801 11.0719 37.6658 11.0719Z" fill="#21BCA5" />
    <path d="M42.5291 12.8297C42.8148 12.8297 43.0465 12.598 43.0465 12.3123C43.0465 12.0266 42.8148 11.7949 42.5291 11.7949C42.2434 11.7949 42.0117 12.0266 42.0117 12.3123C42.0117 12.598 42.2434 12.8297 42.5291 12.8297Z" fill="#1F2348" fill-opacity="0.5" />
    <path d="M37.8728 8.69099C38.1586 8.69099 38.3902 8.45936 38.3902 8.17362C38.3902 7.88789 38.1586 7.65625 37.8728 7.65625C37.5871 7.65625 37.3555 7.88789 37.3555 8.17362C37.3555 8.45936 37.5871 8.69099 37.8728 8.69099Z" fill="#1F2348" fill-opacity="0.5" />
    <path d="M26.291 39.3593C33.7824 39.3593 39.8554 33.2863 39.8554 25.7949C39.8554 18.3035 33.7824 12.2305 26.291 12.2305C18.7995 12.2305 12.7266 18.3035 12.7266 25.7949C12.7266 33.2863 18.7995 39.3593 26.291 39.3593Z" fill="url(#paint0_radial_1281_10923)" />
    <path d="M27.0324 18.5882H26.8205V16.9986C26.8205 16.7061 26.5831 16.4688 26.2906 16.4688C25.9981 16.4688 25.7607 16.7061 25.7607 16.9986V18.5882H25.5488C23.7367 18.5882 22.2637 20.0612 22.2637 21.8733V24.6286C22.2637 26.4407 23.7367 27.9137 25.5488 27.9137H26.3966C26.6891 27.9137 26.9264 27.6763 26.9264 27.3839C26.9264 27.0914 26.6891 26.854 26.3966 26.854H25.5488C24.3216 26.854 23.3234 25.8557 23.3234 24.6286V21.8733C23.3234 20.6462 24.3216 19.6479 25.5488 19.6479H27.0324C28.2596 19.6479 29.2578 20.6462 29.2578 21.8733V22.0641C29.2578 22.3565 29.4952 22.5939 29.7877 22.5939C30.0802 22.5939 30.3175 22.3565 30.3175 22.0641V21.8733C30.3175 20.0612 28.8445 18.5882 27.0324 18.5882Z" fill="white" />
    <path d="M27.0324 23.6758H26.1846C25.8921 23.6758 25.6548 23.9132 25.6548 24.2056C25.6548 24.4981 25.8921 24.7355 26.1846 24.7355H27.0324C28.2596 24.7355 29.2578 25.7338 29.2578 26.9609V29.7162C29.2578 30.9433 28.2596 31.9416 27.0324 31.9416H25.5488C24.3216 31.9416 23.3234 30.9433 23.3234 29.7162V29.483C23.3234 29.1906 23.086 28.9532 22.7935 28.9532C22.501 28.9532 22.2637 29.1906 22.2637 29.483V29.7162C22.2637 31.5283 23.7367 33.0013 25.5488 33.0013H25.7607V34.5909C25.7607 34.8834 25.9981 35.1207 26.2906 35.1207C26.5831 35.1207 26.8205 34.8834 26.8205 34.5909V33.0013H27.0324C28.8445 33.0013 30.3175 31.5283 30.3175 29.7162V26.9609C30.3175 25.1488 28.8445 23.6758 27.0324 23.6758Z" fill="white" />
    <defs>
        <radialGradient id="paint0_radial_1281_10923" cx="0" cy="0" r="1" gradientUnits="userSpaceOnUse" gradientTransform="translate(39.8543 39.3596) rotate(180) scale(27.1288 27.1288)">
            <stop stop-color="#260133" />
            <stop offset="1" stop-color="#1F2348" />
        </radialGradient>
    </defs>
</svg>
    