<svg xmlns="http://www.w3.org/2000/svg" width="41" height="52" fill="none">
    <circle cx="20.39" cy="16.61" r="16.61" fill="url(#paint0_linear_1054_1148)" />
    <path fill="#fff" d="M21.452 6.46c.867 0 1.656.088 2.367.265a9.224 9.224 0 0 1 2.108.798l-1.249 3.004c-.59-.266-1.136-.47-1.64-.612a5.22 5.22 0 0 0-1.586-.239c-.52 0-.998.08-1.431.24-.417.141-.79.362-1.12.664-.329.301-.606.673-.832 1.116a6.157 6.157 0 0 0-.468 1.542h5.126v2.286h-5.308c0 .071-.009.168-.026.293v.797c0 .124.009.257.026.399h4.501v2.313h-4.293c.139.69.382 1.276.729 1.754a3.6 3.6 0 0 0 1.378 1.063c.573.23 1.232.346 1.978.346.66 0 1.275-.062 1.847-.186a8.952 8.952 0 0 0 1.64-.558v3.322a6.409 6.409 0 0 1-1.64.559c-.59.141-1.283.212-2.081.212-1.353 0-2.559-.248-3.617-.744a6.863 6.863 0 0 1-2.628-2.233c-.694-.975-1.162-2.153-1.405-3.535h-1.743v-2.313h1.51a4.698 4.698 0 0 1-.053-.372v-.824c0-.124.009-.222.026-.293h-1.483v-2.286h1.691c.226-1.418.685-2.632 1.38-3.642a6.87 6.87 0 0 1 2.653-2.312c1.075-.55 2.29-.825 3.643-.825Z" />
    <path fill="#1F2348" fill-opacity=".4" d="M0 41.15V51.5h6.51v-1.62H1.95v-2.94h4.185v-1.605H1.95V42.77h4.44v-1.62H0Zm17.625 0h-1.95v6.015c0 .795-.045 1.5-.45 2.025-.375.48-.945.78-1.74.78-.78 0-1.365-.3-1.74-.78-.405-.525-.435-1.23-.435-2.025V41.15H9.345v6.075c0 1.38.195 2.385.914 3.21.706.795 1.786 1.245 3.226 1.245s2.52-.45 3.225-1.245c.72-.825.915-1.83.915-3.21V41.15Zm6.145 6.15 2.445 4.2h2.28l-2.79-4.44c1.26-.39 2.235-1.11 2.235-2.895 0-.99-.465-1.785-1.11-2.28-.645-.495-1.515-.735-2.61-.735h-3.33V51.5h1.95v-4.2h.93Zm.075-1.53h-1.02v-3.09h1.02c.63 0 1.11.045 1.485.33.39.27.6.645.6 1.215 0 .585-.21.93-.6 1.215-.375.285-.855.33-1.485.33Zm11.735 5.91c3 0 5.414-2.01 5.414-5.34S38.58 41 35.58 41c-2.985 0-5.415 2.01-5.415 5.34s2.43 5.34 5.415 5.34Zm3.404-5.355c0 2.25-1.485 3.645-3.405 3.645-1.905 0-3.405-1.395-3.405-3.645s1.485-3.63 3.405-3.63c1.92 0 3.405 1.38 3.405 3.63Z" />
    <defs>
        <linearGradient id="paint0_linear_1054_1148" x1="0" y1="0" x2="24.4955" y2="10.1638" gradientUnits="userSpaceOnUse">
            <stop stop-color="#2AB799" />
            <stop offset="1" stop-color="#24CFAB" />
        </linearGradient>
    </defs>
</svg>