<svg xmlns="http://www.w3.org/2000/svg" width="50" height="50" fill="none" viewBox="0 0 50 50"><circle cx="25" cy="25" r="25" fill="url(#paint0_linear_1290_2539)"/><path fill="#fff" d="M26.5977 9.72266C27.9031 9.72266 29.0909 9.85602 30.1613 10.1227C31.2578 10.3895 32.3151 10.7896 33.3333 11.323L31.4536 15.844C30.566 15.444 29.7436 15.1372 28.9865 14.9238C28.2294 14.6838 27.4331 14.5638 26.5977 14.5638C25.8145 14.5638 25.0966 14.6838 24.4439 14.9238C23.8173 15.1372 23.256 15.4706 22.76 15.9241C22.264 16.3775 21.8463 16.9376 21.5069 17.6044C21.1936 18.2713 20.9586 19.0448 20.802 19.925H28.5166V23.3658H20.5279C20.5279 23.4724 20.5148 23.6191 20.4887 23.8059C20.4887 23.9659 20.4887 24.1659 20.4887 24.406C20.4887 24.5927 20.4887 24.7927 20.4887 25.0061C20.4887 25.1928 20.5018 25.3929 20.5279 25.6063H27.3026V29.087H20.8412C21.05 30.1273 21.4155 31.0075 21.9376 31.7276C22.4859 32.4211 23.1777 32.9546 24.0131 33.328C24.8747 33.6748 25.8667 33.8481 26.9893 33.8481C27.9814 33.8481 28.9082 33.7548 29.7697 33.5681C30.6573 33.3547 31.4797 33.0746 32.2368 32.7279V37.729C31.5058 38.1024 30.6834 38.3825 29.7697 38.5692C28.8821 38.7826 27.8378 38.8893 26.6369 38.8893C24.6005 38.8893 22.7861 38.5159 21.1936 37.769C19.6011 36.9955 18.2827 35.8753 17.2384 34.4083C16.1941 32.9413 15.4892 31.1675 15.1237 29.087H12.5V25.6063H14.7713C14.7452 25.4729 14.7191 25.2862 14.693 25.0461C14.693 24.8061 14.693 24.5927 14.693 24.406C14.693 24.1926 14.693 23.9926 14.693 23.8059C14.693 23.6191 14.706 23.4724 14.7321 23.3658H12.5V19.925H15.0454C15.3848 17.7912 16.0766 15.9641 17.1209 14.4437C18.1652 12.9234 19.4966 11.7631 21.1153 10.9629C22.7339 10.1361 24.5614 9.72266 26.5977 9.72266Z"/><defs><linearGradient id="paint0_linear_1290_2539" x1="0" x2="57.716" y1="0" y2="23.948" gradientUnits="userSpaceOnUse"><stop stop-color="#2AB799"/><stop offset="1" stop-color="#24CFAB"/></linearGradient></defs></svg>