<svg width="48" height="23" viewBox="0 0 48 23" fill="none" xmlns="http://www.w3.org/2000/svg">
    <path
        d="M0 11.5047L0.893322 0.142578H2.02618L8.37705 9.54174L7.94638 9.6533L8.69615 0.142578H10.0841L9.1908 11.5047H8.07435L1.73907 2.12118L2.15415 1.99321L1.38797 11.5039H0V11.5047Z"
        fill="#393F5E" />
    <path d="M12.7339 11.5047L13.6116 0.142578H15.112L14.2187 11.5047H12.7339Z" fill="#393F5E" />
    <path
        d="M17.7607 11.5047L18.6385 0.142578H19.8509L23.553 10.4671H22.9304L28.2288 0.142578H29.4256L28.5479 11.5047H27.2075L27.9417 2.15317L28.4683 2.21715L23.6809 11.5047H22.6597L19.2923 2.21715L19.8345 2.15317L19.1003 11.5047H17.7607Z"
        fill="#393F5E" />
    <path d="M32.0908 11.5047L32.9686 0.142578H34.4689L33.5756 11.5047H32.0908Z" fill="#393F5E" />
    <path
        d="M42.2396 11.6493C41.1756 11.6493 40.2634 11.4335 39.503 11.0029C38.7426 10.5722 38.1544 9.95779 37.7393 9.15963C37.3242 8.36146 37.1167 7.40416 37.1167 6.28689C37.1167 5.02114 37.3374 3.917 37.7787 2.97528C38.22 2.03356 38.8402 1.30266 39.6375 0.780939C40.4365 0.26086 41.3774 0 42.4627 0C43.516 0 44.4257 0.215743 45.1919 0.646408C45.958 1.07707 46.5487 1.69149 46.9629 2.48965C47.3772 3.28782 47.5855 4.25005 47.5855 5.37798C47.5855 6.64454 47.3649 7.74787 46.9236 8.68959C46.4822 9.63131 45.8621 10.3597 45.0647 10.8757C44.2657 11.3909 43.3248 11.6493 42.2396 11.6493ZM42.2396 10.404C43.0271 10.404 43.7046 10.2022 44.2739 9.79783C44.8432 9.39342 45.2846 8.81427 45.5987 8.05877C45.9121 7.30326 46.0696 6.40501 46.0696 5.36157C46.0696 4.04251 45.7587 3.02614 45.1361 2.31329C44.5135 1.60043 43.6284 1.24442 42.4791 1.24442C41.6809 1.24442 40.9951 1.44703 40.4209 1.85063C39.8467 2.25504 39.4046 2.83501 39.0961 3.58969C38.7877 4.3452 38.6335 5.24919 38.6335 6.30247C38.6335 7.61087 38.9444 8.6215 39.567 9.33435C40.1888 10.048 41.0796 10.404 42.2396 10.404ZM44.7448 14.5532C44.2977 14.2021 43.8695 13.7575 43.4602 13.221C43.0508 12.6837 42.7071 12.1333 42.4307 11.5697L43.8507 11.0751C44.0951 11.6173 44.3904 12.0964 44.7366 12.5114C45.0819 12.9265 45.447 13.3096 45.8301 13.6607L44.7448 14.5532Z"
        fill="#393F5E" />
    <path
        d="M6.71875 22.6056L7.59402 11.4805H9.0468L8.26586 21.3866H13.7505L13.657 22.6056H6.71875Z"
        fill="#F9B233" />
    <path d="M16.0625 22.6056L16.9222 11.4805H18.3906L17.5153 22.6056H16.0625Z" fill="#F9B233" />
    <path
        d="M24.4993 22.6056L20.4839 11.4805H21.9998L25.4845 21.4022H24.953L29.9684 11.4805H31.4843L25.7339 22.6056H24.4993Z"
        fill="#F9B233" />
    <path
        d="M32.7188 22.6056L33.594 11.4805H40.7193L40.6413 12.6683H34.9377L34.2347 21.4186H39.9375L39.844 22.6064H32.7188V22.6056ZM34.3282 17.5582L34.4217 16.3548H40.031L39.9219 17.5582H34.3282Z"
        fill="#F9B233" />
</svg>
    