<svg xmlns="http://www.w3.org/2000/svg" fill="none" class="logo" viewBox="0 0 102 24"><path fill="url(#nimiq-logo-svg)" d="m26.697 10.875-5.625-9.75A2.255 2.255 0 0 0 19.122 0H7.872C7.07 0 6.327.427 5.926 1.125L.3 10.875a2.253 2.253 0 0 0 0 2.25l5.625 9.75A2.244 2.244 0 0 0 7.872 24h11.25c.803 0 1.545-.427 1.946-1.125l5.625-9.75a2.244 2.244 0 0 0 .004-2.25z"/><path fill="#1F2348" d="M46.686 4.875h2.445v14.25h-1.883L39.56 9.187v9.938h-2.437V4.875h1.875l7.688 9.938V4.874zm7.312 14.375V5h2.625v14.25h-2.625zM73.31 5.313h2.063v14.25h-2.25V10.75l-3.844 8.813h-1.687l-3.844-8.813v8.813h-2.25V5.313h2.063l4.875 11.156L73.31 5.312zm6.938 14.25V5.313h2.625v14.25h-2.625zm20.16-3.248c-.765 1.519-1.954 2.411-3.007 2.846.123.285.705 1.08 1.143 1.538.44.457.9.922 1.485 1.395l-1.78 1.406c-.657-.457-1.227-1.005-1.808-1.642a11.932 11.932 0 0 1-1.527-2.127c-.108.008-.412.019-.603.019-1.452 0-2.663-.296-3.71-.885-1.046-.592-1.844-1.44-2.395-2.55-.507-1.009-.833-2.355-.833-3.878 0-1.522.281-2.767.84-3.877.559-1.106 1.361-1.958 2.408-2.55 1.046-.592 2.268-.885 3.69-.885 1.42 0 2.662.296 3.708.885 1.047.593 1.845 1.44 2.397 2.55.555 1.11.832 2.355.832 3.877 0 1.523-.334 2.873-.84 3.878zm-9.274.011c.758.908 1.815 1.361 3.177 1.361 1.36 0 2.422-.453 3.176-1.36.757-.912 1.136-2.195 1.136-3.89 0-1.683-.379-2.996-1.136-3.896-.758-.9-1.815-1.354-3.176-1.354-1.362 0-2.423.447-3.177 1.343-.757.896-1.136 2.213-1.136 3.908 0 1.694.379 2.977 1.136 3.888z"/><defs><radialGradient id="nimiq-logo-svg" cx="0" cy="0" r="1" gradientTransform="matrix(-26.9977 0 0 -24 26.998 24)" gradientUnits="userSpaceOnUse"><stop stop-color="#EC991C"/><stop offset="1" stop-color="#E9B213"/></radialGradient></defs></svg>