<svg width="105" height="42" fill="none" xmlns="http://www.w3.org/2000/svg"><g clip-path="url(#a)"><path opacity=".6" d="m22.64 30.368-4.773-8.272a1.909 1.909 0 0 0-1.655-.952H6.676c-.682 0-1.305.365-1.649.952L.254 30.367a1.885 1.885 0 0 0 0 1.903l4.768 8.267c.343.593.972.952 1.654.952h9.536c.682 0 1.311-.36 1.655-.952l4.762-8.235c.36-.597.365-1.337.011-1.935Z" fill="#BEBEBE"/><path opacity=".8" d="M22.64 9.224 17.867.951A1.909 1.909 0 0 0 16.212 0H6.676c-.682 0-1.305.365-1.649.951L.254 9.224a1.885 1.885 0 0 0 0 1.903l4.768 8.267c.343.593.972.952 1.654.952h9.536c.682 0 1.311-.36 1.655-.952l4.762-8.235c.36-.598.365-1.338.011-1.935Z" fill="#B3B3B3"/><path d="m41.141 19.796-4.773-8.272a1.909 1.909 0 0 0-1.655-.952h-9.536c-.682 0-1.305.365-1.649.952l-4.773 8.272a1.885 1.885 0 0 0 0 1.903l4.762 8.273c.344.592.973.951 1.655.951h9.536c.682 0 1.31-.36 1.654-.951l4.763-8.236a1.88 1.88 0 0 0 .016-1.94Z" fill="#737373" fill-opacity=".15"/><path d="M58.617 13.648h2.061v12.079h-1.607l-6.502-8.42v8.42h-2.035V13.648h1.597l6.517 8.421-.032-8.42ZM64.811 25.727V13.648h2.226v12.079H64.81ZM81.188 13.648h1.744v12.079h-1.908v-7.47l-3.283 7.47h-1.406l-3.282-7.47v7.47H71.17V13.648h1.744l4.134 9.457 4.139-9.457ZM87.066 25.727V13.648h2.225v12.079h-2.225ZM104.161 22.978a5.054 5.054 0 0 1-2.548 2.41c.27.476.597.915.973 1.312.391.428.819.819 1.274 1.184l-1.533 1.19a9.533 9.533 0 0 1-1.538-1.391 10.358 10.358 0 0 1-1.311-1.803h-.513a6.286 6.286 0 0 1-3.145-.756 5.034 5.034 0 0 1-2.035-2.167 7.49 7.49 0 0 1-.703-3.283 7.118 7.118 0 0 1 .713-3.282 5.066 5.066 0 0 1 2.04-2.162 6.9 6.9 0 0 1 6.27 0 4.907 4.907 0 0 1 2.035 2.162 7.112 7.112 0 0 1 .703 3.282 7.34 7.34 0 0 1-.682 3.304Zm-7.876 0a3.72 3.72 0 0 0 5.249.127l.127-.127a5.036 5.036 0 0 0 .957-3.282 5.036 5.036 0 0 0-.957-3.283 3.742 3.742 0 0 0-5.292-.085l-.09.085a5.085 5.085 0 0 0-.95 3.314 5.03 5.03 0 0 0 .94 3.283l.016-.032ZM53.96 37.166c-.63 0-1.174-.132-1.634-.396a2.666 2.666 0 0 1-1.062-1.126c-.249-.487-.37-1.063-.37-1.724 0-.655.121-1.226.37-1.712a2.62 2.62 0 0 1 1.062-1.12c.465-.265 1.01-.397 1.633-.397.429 0 .83.063 1.206.19.375.127.687.312.935.555l-.375.835a3.224 3.224 0 0 0-.851-.502 2.508 2.508 0 0 0-.899-.153c-.608 0-1.083.195-1.416.592-.333.396-.502.962-.502 1.712 0 .746.169 1.322.502 1.718.333.397.808.598 1.416.598.317 0 .619-.053.899-.154.28-.105.56-.27.851-.502l.375.835c-.248.244-.56.429-.935.556a3.604 3.604 0 0 1-1.206.195ZM59.7 37.156c-.47 0-.872-.096-1.21-.286a1.955 1.955 0 0 1-.788-.803c-.185-.35-.275-.762-.275-1.237 0-.476.09-.888.275-1.243.185-.354.444-.623.788-.814.338-.19.745-.285 1.21-.285.455 0 .857.095 1.195.285.338.19.602.46.793.814.19.355.28.767.28 1.243 0 .48-.095.893-.28 1.237-.185.348-.45.613-.793.803-.338.19-.735.286-1.195.286Zm0-.852c.365 0 .65-.121.851-.37.201-.243.296-.613.296-1.104 0-.487-.1-.851-.296-1.1-.2-.243-.48-.37-.85-.37-.376 0-.662.122-.868.37-.206.249-.306.613-.306 1.1 0 .491.1.861.301 1.104.206.249.492.37.872.37ZM63.585 37.092v-3.22c0-.205-.005-.417-.016-.633a6.156 6.156 0 0 0-.058-.635h1.047l.1.888-.1.01c.116-.322.306-.57.57-.745.26-.18.572-.264.926-.264.423 0 .75.106.988.317.238.212.397.534.465.962l-.211-.195a1.59 1.59 0 0 1 .603-.788c.285-.2.618-.296.993-.296.503 0 .878.154 1.132.46.253.307.375.766.375 1.39v2.754h-1.11v-2.722c0-.344-.058-.597-.175-.761-.116-.164-.306-.243-.57-.243-.307 0-.55.105-.725.322-.174.217-.264.513-.264.893v2.506h-1.11V34.37c0-.344-.063-.598-.18-.761-.121-.164-.312-.244-.57-.244-.313 0-.561.106-.735.323-.175.216-.265.512-.265.893v2.506h-1.11v.005ZM95.296 33.44v-.836h3.167v.835h-3.167Zm3.167 2.732v.883a1.763 1.763 0 0 1-.35.084 2.729 2.729 0 0 1-.37.022c-.501 0-.892-.143-1.167-.428-.275-.286-.413-.693-.413-1.227v-3.99l1.11-.376v4.313c0 .201.032.36.096.476a.535.535 0 0 0 .264.243.923.923 0 0 0 .37.069c.08 0 .153-.005.222-.016l.238-.053ZM101.412 37.388l-2.072-4.784h1.163l1.411 3.52-.502 1.264Zm-1.554 1.723-.249-.85c.28-.059.508-.128.693-.207.185-.08.338-.18.46-.307.121-.126.222-.285.306-.48l.323-.73.285-.407 1.438-3.52h1.1l-2.078 4.789c-.174.39-.37.703-.597.935a2.299 2.299 0 0 1-.761.529 3.93 3.93 0 0 1-.92.248ZM72.244 37.092v-3.22c0-.205-.005-.417-.016-.633a6.156 6.156 0 0 0-.058-.635h1.047l.1.888-.1.01c.116-.322.306-.57.57-.745.26-.18.571-.264.925-.264.423 0 .751.106.989.317.238.212.396.534.465.962l-.211-.195a1.59 1.59 0 0 1 .602-.788c.286-.2.619-.296.994-.296.502 0 .878.154 1.131.46.254.307.376.766.376 1.39v2.754h-1.11v-2.722c0-.344-.059-.597-.175-.761-.116-.164-.306-.243-.57-.243-.307 0-.55.105-.725.322-.174.217-.264.513-.264.893v2.506h-1.11V34.37c0-.344-.064-.598-.18-.761-.122-.164-.312-.244-.57-.244-.313 0-.561.106-.736.323-.174.216-.264.512-.264.893v2.506h-1.11v.005ZM82.525 37.155c-.55 0-.962-.153-1.242-.46-.275-.306-.412-.766-.412-1.38v-2.71h1.11v2.721c0 .328.068.566.206.72.137.153.338.232.613.232.328 0 .587-.106.782-.322.196-.212.296-.497.296-.852V32.61H85v4.488h-1.084v-.925l.117-.01c-.132.327-.328.57-.587.74-.26.169-.571.253-.92.253ZM86.854 37.092v-3.22c0-.21-.005-.427-.016-.639a6.193 6.193 0 0 0-.058-.629h1.047l.1.888-.1.027c.143-.339.354-.592.634-.772.28-.175.608-.264.973-.264 1.068 0 1.602.618 1.602 1.85v2.754h-1.11v-2.712c0-.349-.07-.608-.207-.772-.137-.164-.349-.243-.629-.243-.343 0-.618.106-.824.322-.207.217-.307.503-.307.857v2.542h-1.105v.011ZM92.817 30.57h1.237v1.093h-1.237V30.57Zm.053 6.522v-4.488h1.11v4.488h-1.11Z" fill="#737373"/></g><defs><clipPath id="a"><path fill="#fff" d="M0 0h104.854v41.49H0z"/></clipPath></defs></svg>