<svg width="422" height="171" viewBox="0 0 422 171" fill="none" xmlns="http://www.w3.org/2000/svg">
    <path fill-rule="evenodd" clip-rule="evenodd" d="M410.635 123H406.199C405.566 123 404.985 123.357 404.669 123.938L400.237 132.103C399.921 132.684 399.921 133.403 400.237 133.984L404.664 142.15C404.981 142.731 405.566 143.088 406.199 143.088H410.635V123Z" fill="#F35A5A"/>
    <path fill-rule="evenodd" clip-rule="evenodd" d="M410.635 123H415.071C415.704 123 416.284 123.357 416.601 123.938L421.032 132.103C421.349 132.684 421.349 133.403 421.032 133.984L416.605 142.15C416.289 142.731 415.704 143.088 415.071 143.088H410.635V123Z" fill="#D63B3B"/>
    <g filter="url(#filter0_d_0_1)">
    <path d="M22.306 143.375V98.6131H5.23438V88.9102H51.4147V98.6131H34.3889V143.375H22.306Z" fill="#1F2145"/>
    <path d="M58.464 143.376V115.686C58.464 113.855 58.4182 112.024 58.3267 110.148C58.2352 108.271 58.0979 106.441 57.8232 104.61H68.6704L69.9061 114.862L68.6704 114.267C69.2654 110.789 70.7299 108.18 73.0641 106.395C75.3983 104.61 78.0071 103.74 80.9821 103.74C81.8517 103.74 82.6297 103.832 83.3163 103.969C84.0028 104.106 84.5978 104.289 85.1012 104.518V114.999C83.2247 114.13 81.3025 113.718 79.4259 113.718C77.3206 113.718 75.6272 114.084 74.2541 114.862C72.9268 115.64 71.8742 116.693 71.0961 118.112C70.3638 119.53 69.9976 121.178 69.9976 123.1V143.376H58.464Z" fill="#1F2145"/>
    <path d="M130.824 139.255C128.948 140.72 126.66 141.91 123.959 142.734C121.259 143.557 118.513 144.015 115.767 144.015C111.419 144.015 107.711 143.191 104.553 141.544C101.395 139.896 99.0154 137.608 97.322 134.587C95.6285 131.566 94.8047 127.996 94.8047 123.877C94.8047 119.895 95.6285 116.371 97.2762 113.304C98.9239 110.238 101.121 107.858 103.958 106.165C106.796 104.471 110.091 103.602 113.844 103.602C117.46 103.602 120.618 104.38 123.273 106.027C125.927 107.629 127.941 109.918 129.406 112.847C130.824 115.776 131.557 119.254 131.557 123.282V124.975H105.011L105.148 119.254H124.646L121.671 121.634C121.717 118.385 121.076 115.913 119.794 114.266C118.513 112.618 116.636 111.794 114.165 111.794C111.51 111.794 109.451 112.755 107.986 114.678C106.521 116.6 105.789 119.392 105.789 123.053C105.789 127.401 106.659 130.513 108.352 132.481C110.046 134.404 112.654 135.365 116.179 135.365C118.238 135.365 120.252 135.044 122.22 134.358C124.188 133.717 126.065 132.756 127.712 131.52L130.824 139.255Z" fill="#1F2145"/>
    <path d="M161.67 143.97C158.283 143.97 155.308 143.146 152.699 141.499C150.09 139.851 148.076 137.563 146.657 134.542C145.239 131.521 144.506 127.997 144.506 123.969C144.506 119.942 145.239 116.372 146.703 113.305C148.168 110.239 150.182 107.813 152.745 106.12C155.308 104.426 158.283 103.557 161.67 103.557C164.782 103.557 167.528 104.335 169.908 105.845C172.288 107.355 173.935 109.461 174.805 112.024L173.89 112.619V104.609H185.286V143.375H173.89V135.411L174.805 135.549C173.935 138.203 172.288 140.263 169.908 141.728C167.528 143.192 164.782 143.97 161.67 143.97ZM165.011 135.183C167.802 135.183 169.999 134.221 171.555 132.253C173.112 130.331 173.89 127.494 173.89 123.832C173.89 120.171 173.112 117.333 171.555 115.365C169.999 113.397 167.802 112.436 165.011 112.436C162.219 112.436 160.022 113.443 158.374 115.502C156.772 117.562 155.948 120.354 155.948 123.969C155.948 127.585 156.727 130.377 158.283 132.253C159.839 134.13 162.127 135.183 165.011 135.183Z" fill="#1F2145"/>
    <path d="M217.19 143.969C209.775 143.969 203.963 142.367 199.661 139.209L202.819 131.2C204.878 132.665 207.121 133.809 209.684 134.587C212.201 135.365 214.764 135.777 217.282 135.777C219.25 135.777 220.806 135.456 221.858 134.816C222.911 134.175 223.46 133.305 223.46 132.161C223.46 131.2 223.094 130.422 222.316 129.918C221.538 129.369 220.211 128.866 218.243 128.408L211.881 126.898C208.128 126.12 205.336 124.838 203.597 123.099C201.858 121.314 200.942 118.934 200.942 116.005C200.942 113.625 201.629 111.474 203.048 109.597C204.466 107.721 206.389 106.256 208.906 105.203C211.423 104.151 214.307 103.602 217.648 103.602C220.44 103.602 223.14 104.013 225.749 104.883C228.357 105.753 230.737 106.897 232.843 108.453L229.639 116.188C227.671 114.815 225.611 113.762 223.552 113.076C221.492 112.389 219.478 112.023 217.556 112.023C215.68 112.023 214.169 112.343 213.117 113.03C212.064 113.671 211.515 114.586 211.515 115.776C211.515 116.646 211.835 117.332 212.476 117.836C213.117 118.339 214.261 118.797 215.863 119.209L222.362 120.673C226.344 121.589 229.227 122.962 231.012 124.792C232.797 126.623 233.667 129.095 233.667 132.115C233.667 135.777 232.202 138.706 229.273 140.857C226.344 143.008 222.362 143.969 217.19 143.969Z" fill="#1F2145"/>
    <path d="M262.681 143.97C257.829 143.97 254.214 142.643 251.834 139.897C249.454 137.151 248.264 133.169 248.264 127.677V104.609H259.797V127.951C259.797 130.331 260.301 132.116 261.308 133.26C262.315 134.405 263.825 135 265.93 135C268.264 135 270.187 134.176 271.651 132.574C273.116 130.972 273.894 128.729 273.894 126.029V104.609H285.519V143.375H274.26V135.64L275.267 135.732C274.123 138.432 272.521 140.492 270.324 141.865C268.127 143.284 265.61 143.97 262.681 143.97Z" fill="#1F2145"/>
    <path d="M302.499 143.376V115.686C302.499 113.855 302.453 112.024 302.361 110.148C302.27 108.271 302.133 106.441 301.858 104.61H312.705L313.941 114.862L312.705 114.267C313.3 110.789 314.765 108.18 317.099 106.395C319.433 104.61 322.042 103.74 325.017 103.74C325.886 103.74 326.664 103.832 327.351 103.969C328.037 104.106 328.632 104.289 329.136 104.518L329.09 114.999C327.214 114.13 325.291 113.718 323.415 113.718C321.309 113.718 319.616 114.084 318.243 114.862C316.916 115.64 315.863 116.693 315.085 118.112C314.353 119.53 313.987 121.178 313.987 123.1V143.376H302.499Z" fill="#1F2145"/>
    <path d="M356.507 146.258L338.382 104.562H350.374L361.541 132.71L356.507 146.258ZM343.554 160.812L340.9 151.933C343.28 151.475 345.293 150.88 346.804 150.194C348.314 149.507 349.641 148.638 350.648 147.631C351.655 146.624 352.525 145.342 353.166 143.878L356.14 137.241L359.207 132.71L370.603 104.562H382L364.196 145.342C362.64 148.912 360.809 151.75 358.749 153.855C356.69 155.96 354.401 157.517 351.884 158.615C349.321 159.668 346.575 160.4 343.554 160.812Z" fill="#1F2145"/>
    </g>
    <g filter="url(#filter1_d_0_1)">
    <path d="M155.728 29.8457H159.792V53.6579H156.624L143.806 37.0571V53.6579H139.794V29.8457H142.941L155.79 46.4465L155.728 29.8457Z" fill="url(#paint0_linear_0_1)"/>
    <path d="M167.941 53.6579V29.8457H172.329V53.6579H167.941Z" fill="url(#paint1_linear_0_1)"/>
    <path d="M200.226 29.8457H203.665V53.6579H199.903V38.9329L193.431 53.6579H190.659L184.188 38.9329V53.6579H180.478V29.8457H183.917L192.066 48.489L200.226 29.8457Z" fill="url(#paint2_linear_0_1)"/>
    <path d="M211.813 53.6579V29.8457H216.201V53.6579H211.813Z" fill="url(#paint3_linear_0_1)"/>
    <path d="M245.515 48.2397C244.463 50.376 242.681 52.0538 240.492 52.9917C241.024 53.9296 241.67 54.7946 242.41 55.5761C243.181 56.4202 244.025 57.1914 244.921 57.9105L241.899 60.2552C240.795 59.4528 239.773 58.5357 238.867 57.5145C237.877 56.4202 237.012 55.2322 236.282 53.9609H235.271C233.114 54.013 230.978 53.5023 229.071 52.4707C227.331 51.4807 225.934 49.9904 225.059 48.198C224.11 46.1763 223.642 43.9566 223.673 41.7265C223.621 39.486 224.1 37.2663 225.08 35.255C225.965 33.4626 227.362 31.9828 229.102 30.9928C232.979 29.0128 237.575 29.0128 241.462 30.9928C243.202 31.962 244.609 33.4522 245.474 35.255C246.443 37.2663 246.922 39.486 246.86 41.7265C246.922 43.9775 246.464 46.1972 245.515 48.2397ZM229.988 48.2397C232.781 51.1576 237.408 51.2722 240.336 48.4898L240.586 48.2397C241.951 46.3639 242.618 44.0817 242.472 41.7682C242.618 39.4547 241.951 37.1725 240.586 35.2967C237.752 32.3684 233.083 32.2955 230.155 35.13L229.978 35.2967C228.612 37.1934 227.945 39.4964 228.102 41.8307C227.945 44.1338 228.602 46.4264 229.957 48.3022L229.988 48.2397Z" fill="url(#paint4_linear_0_1)"/>
    </g>
    <g filter="url(#filter2_d_0_1)">
    <path fill-rule="evenodd" clip-rule="evenodd" d="M89.1397 15.8535H86.2467C84.9982 15.8535 83.8431 16.533 83.2189 17.6416L74.4682 33.1388C73.8439 34.2474 73.8439 35.6064 74.4682 36.715L83.2189 52.2122C83.8431 53.3208 84.9982 54.0003 86.2467 54.0003H103.748C104.997 54.0003 106.152 53.3208 106.776 52.2122L115.527 36.715C116.157 35.6064 116.157 34.2474 115.533 33.1388L106.782 17.6416C106.152 16.533 104.997 15.8535 103.748 15.8535H100.861V19.8169H89.1397V15.8535Z" fill="url(#paint5_radial_0_1)"/>
    </g>
    <path fill-rule="evenodd" clip-rule="evenodd" d="M104.834 9.94437C105.591 10.0658 107.389 7.26237 108.294 5.7503C108.42 5.55163 108.704 5.662 108.672 5.89378L106.8 17.7917C102.478 21.8313 95.0005 21.7982 95.0005 21.7982V19.3211V19.061V11.1916V11.1468V0C95.9972 0.227973 96.9628 3.72281 97.7112 6.43108C98.1946 8.18081 98.5874 9.60222 98.8392 9.60222C99.4155 9.60222 100.014 7.76269 100.543 6.13876C100.969 4.82882 101.35 3.65917 101.637 3.70845C101.918 3.75691 102.368 4.93327 102.873 6.25167C103.517 7.93572 104.25 9.85151 104.834 9.94437ZM95.0392 11.1958L95.1802 11.3746L95.1267 11.2688C95.1109 11.2273 95.0772 11.2046 95.0392 11.1958ZM100.837 8.80756C100.837 9.35941 101.258 9.80089 101.784 9.80089C102.31 9.80089 102.741 9.34837 102.73 8.80756C102.73 8.2557 102.31 7.81422 101.784 7.81422C101.258 7.81422 100.837 8.2557 100.837 8.80756ZM106.222 10.3859C106.222 10.6839 106.453 10.9377 106.748 10.9377C107.042 10.9377 107.274 10.6839 107.274 10.3859C107.274 10.0879 107.042 9.834 106.748 9.834C106.464 9.834 106.222 10.0768 106.222 10.3859Z" fill="#C4C4C4"/>
    <path fill-rule="evenodd" clip-rule="evenodd" d="M94.82 11.3759L94.962 11.1959C94.927 11.2048 94.8978 11.2275 94.8744 11.2684L94.82 11.3759ZM95.0006 11.1469V0C94.0039 0.227742 93.0382 3.71904 92.2899 6.42457C91.8065 8.17253 91.4137 9.59251 91.1619 9.59251C90.5856 9.59251 89.9868 7.75484 89.4581 6.13255C89.0316 4.82394 88.6509 3.65546 88.3644 3.70469C88.0824 3.75317 87.6316 4.92901 87.1265 6.24656C86.4827 7.9259 85.7507 9.83546 85.1673 9.93431C84.4101 10.0556 82.6117 7.25503 81.7072 5.74448C81.581 5.54601 81.2971 5.65627 81.3286 5.88782L83.2006 17.7958C87.5231 21.8312 95.0006 21.7982 95.0006 21.7982V19.3209L95.0007 19.3211V11.1468L95.0006 11.1469ZM82.7274 10.3753C82.7274 10.673 82.9587 10.9266 83.2532 10.9266C83.5477 10.9266 83.779 10.673 83.779 10.3753C83.779 10.0776 83.5477 9.82405 83.2532 9.82405C82.9692 9.82405 82.7274 10.0666 82.7274 10.3753ZM87.2707 8.79865C87.2707 9.34994 87.6913 9.79098 88.2172 9.79098C88.743 9.79098 89.1637 9.33892 89.1637 8.79865C89.1637 8.24735 88.743 7.80632 88.2172 7.80632C87.6913 7.80632 87.2707 8.24735 87.2707 8.79865Z" fill="#DFE0E6"/>
    <path fill-rule="evenodd" clip-rule="evenodd" d="M95.0008 12.5723H93.8958C93.7381 12.5723 93.5935 12.6624 93.5147 12.8093L92.4107 14.8728C92.3318 15.0196 92.3318 15.2012 92.4107 15.348L93.5135 17.4115C93.5923 17.5584 93.7381 17.6485 93.8958 17.6485H95.0008V12.5723Z" fill="#F35A5A"/>
    <path fill-rule="evenodd" clip-rule="evenodd" d="M95.0002 12.5723H96.1052C96.2629 12.5723 96.4075 12.6624 96.4863 12.8093L97.5903 14.8728C97.6691 15.0196 97.6691 15.2012 97.5903 15.348L96.4875 17.4115C96.4087 17.5584 96.2629 17.6485 96.1052 17.6485H95.0002V12.5723Z" fill="#D63B3B"/>
    <defs>
    <filter id="filter0_d_0_1" x="0.234375" y="86.9102" width="388.765" height="83.9023" filterUnits="userSpaceOnUse" color-interpolation-filters="sRGB">
    <feFlood flood-opacity="0" result="BackgroundImageFix"/>
    <feColorMatrix in="SourceAlpha" type="matrix" values="0 0 0 0 0 0 0 0 0 0 0 0 0 0 0 0 0 0 127 0" result="hardAlpha"/>
    <feOffset dx="1" dy="4"/>
    <feGaussianBlur stdDeviation="3"/>
    <feComposite in2="hardAlpha" operator="out"/>
    <feColorMatrix type="matrix" values="0 0 0 0 0 0 0 0 0 0 0 0 0 0 0 0 0 0 0.08 0"/>
    <feBlend mode="normal" in2="BackgroundImageFix" result="effect1_dropShadow_0_1"/>
    <feBlend mode="normal" in="SourceGraphic" in2="effect1_dropShadow_0_1" result="shape"/>
    </filter>
    <filter id="filter1_d_0_1" x="136.794" y="29.5078" width="115.071" height="38.748" filterUnits="userSpaceOnUse" color-interpolation-filters="sRGB">
    <feFlood flood-opacity="0" result="BackgroundImageFix"/>
    <feColorMatrix in="SourceAlpha" type="matrix" values="0 0 0 0 0 0 0 0 0 0 0 0 0 0 0 0 0 0 127 0" result="hardAlpha"/>
    <feOffset dx="1" dy="4"/>
    <feGaussianBlur stdDeviation="2"/>
    <feComposite in2="hardAlpha" operator="out"/>
    <feColorMatrix type="matrix" values="0 0 0 0 0 0 0 0 0 0 0 0 0 0 0 0 0 0 0.1 0"/>
    <feBlend mode="normal" in2="BackgroundImageFix" result="effect1_dropShadow_0_1"/>
    <feBlend mode="normal" in="SourceGraphic" in2="effect1_dropShadow_0_1" result="shape"/>
    </filter>
    <filter id="filter2_d_0_1" x="71" y="14.8535" width="50" height="46.1465" filterUnits="userSpaceOnUse" color-interpolation-filters="sRGB">
    <feFlood flood-opacity="0" result="BackgroundImageFix"/>
    <feColorMatrix in="SourceAlpha" type="matrix" values="0 0 0 0 0 0 0 0 0 0 0 0 0 0 0 0 0 0 127 0" result="hardAlpha"/>
    <feOffset dx="1" dy="3"/>
    <feGaussianBlur stdDeviation="2"/>
    <feComposite in2="hardAlpha" operator="out"/>
    <feColorMatrix type="matrix" values="0 0 0 0 0 0 0 0 0 0 0 0 0 0 0 0 0 0 0.05 0"/>
    <feBlend mode="normal" in2="BackgroundImageFix" result="effect1_dropShadow_0_1"/>
    <feBlend mode="normal" in="SourceGraphic" in2="effect1_dropShadow_0_1" result="shape"/>
    </filter>
    <linearGradient id="paint0_linear_0_1" x1="139.795" y1="41.7529" x2="159.787" y2="41.7529" gradientUnits="userSpaceOnUse">
    <stop offset="1.38522e-07" stop-color="#221A3F"/>
    <stop offset="0.3358" stop-color="#221B41"/>
    <stop offset="0.6084" stop-color="#201F44"/>
    <stop offset="0.8944" stop-color="#1E2346"/>
    <stop offset="1" stop-color="#1E2447"/>
    </linearGradient>
    <linearGradient id="paint1_linear_0_1" x1="167.939" y1="41.7529" x2="172.325" y2="41.7529" gradientUnits="userSpaceOnUse">
    <stop offset="1.38522e-07" stop-color="#221A3F"/>
    <stop offset="0.3358" stop-color="#221B41"/>
    <stop offset="0.6084" stop-color="#201F44"/>
    <stop offset="0.8944" stop-color="#1E2346"/>
    <stop offset="1" stop-color="#1E2447"/>
    </linearGradient>
    <linearGradient id="paint2_linear_0_1" x1="180.478" y1="41.7529" x2="203.665" y2="41.7529" gradientUnits="userSpaceOnUse">
    <stop offset="1.38522e-07" stop-color="#221A3F"/>
    <stop offset="0.3358" stop-color="#221B41"/>
    <stop offset="0.6084" stop-color="#201F44"/>
    <stop offset="0.8944" stop-color="#1E2346"/>
    <stop offset="1" stop-color="#1E2447"/>
    </linearGradient>
    <linearGradient id="paint3_linear_0_1" x1="211.817" y1="41.7529" x2="216.203" y2="41.7529" gradientUnits="userSpaceOnUse">
    <stop offset="1.38522e-07" stop-color="#221A3F"/>
    <stop offset="0.3358" stop-color="#221B41"/>
    <stop offset="0.6084" stop-color="#201F44"/>
    <stop offset="0.8944" stop-color="#1E2346"/>
    <stop offset="1" stop-color="#1E2447"/>
    </linearGradient>
    <linearGradient id="paint4_linear_0_1" x1="223.679" y1="44.8869" x2="246.876" y2="44.8869" gradientUnits="userSpaceOnUse">
    <stop offset="1.38522e-07" stop-color="#221A3F"/>
    <stop offset="0.3358" stop-color="#221B41"/>
    <stop offset="0.6084" stop-color="#201F44"/>
    <stop offset="0.8944" stop-color="#1E2346"/>
    <stop offset="1" stop-color="#1E2447"/>
    </linearGradient>
    <radialGradient id="paint5_radial_0_1" cx="0" cy="0" r="1" gradientUnits="userSpaceOnUse" gradientTransform="translate(105.596 53.5035) scale(42.0144 42.9262)">
    <stop stop-color="#EC991C"/>
    <stop offset="1" stop-color="#E9B213"/>
    </radialGradient>
    </defs>
    </svg>
    