<svg xmlns="http://www.w3.org/2000/svg" width="472" height="148" fill="none"><g fill="#1F2145" filter="url(#a)"><path d="M151.702 123.714V87.788H138V80h37.065v7.788H161.4v35.926h-9.698Zm29.021 0V101.49c0-1.47-.036-2.94-.11-4.445-.073-1.506-.184-2.976-.404-4.445h8.706l.992 8.228-.992-.477c.478-2.792 1.653-4.886 3.527-6.318 1.873-1.433 3.967-2.131 6.355-2.131.698 0 1.322.073 1.873.184.551.11 1.029.257 1.433.44v8.413c-1.506-.698-3.049-1.029-4.555-1.029-1.69 0-3.049.294-4.151.918a6.659 6.659 0 0 0-2.535 2.609c-.588 1.138-.882 2.461-.882 4.004v16.273h-9.257Zm58.078-3.306c-1.506 1.175-3.343 2.13-5.51 2.792-2.168.661-4.372 1.028-6.576 1.028-3.49 0-6.465-.661-9-1.983-2.535-1.323-4.445-3.16-5.804-5.584-1.359-2.425-2.02-5.29-2.02-8.596 0-3.196.661-6.024 1.983-8.486 1.323-2.46 3.086-4.371 5.364-5.73 2.277-1.36 4.922-2.057 7.934-2.057 2.902 0 5.437.624 7.568 1.947 2.13 1.285 3.746 3.122 4.922 5.473 1.139 2.351 1.726 5.143 1.726 8.375v1.36h-21.306l.111-4.592h15.649l-2.388 1.91c.037-2.608-.478-4.592-1.506-5.914-1.029-1.323-2.535-1.984-4.519-1.984-2.13 0-3.783.771-4.959 2.314-1.175 1.543-1.763 3.784-1.763 6.723 0 3.49.698 5.988 2.057 7.567 1.359 1.543 3.453 2.314 6.282 2.314 1.653 0 3.269-.257 4.849-.808a15.235 15.235 0 0 0 4.408-2.277l2.498 6.208Zm24.757 3.784c-2.719 0-5.106-.662-7.2-1.984-2.094-1.323-3.71-3.159-4.849-5.584-1.139-2.424-1.727-5.253-1.727-8.486 0-3.232.588-6.097 1.763-8.559 1.176-2.46 2.792-4.408 4.849-5.767 2.058-1.36 4.445-2.057 7.164-2.057 2.498 0 4.702.624 6.612 1.837 1.91 1.212 3.233 2.902 3.931 4.959l-.735.477V92.6h9.147v31.114h-9.147v-6.392l.735.11c-.698 2.131-2.021 3.784-3.931 4.96-1.91 1.175-4.114 1.8-6.612 1.8Zm2.681-7.054c2.241 0 4.004-.771 5.253-2.351 1.249-1.542 1.874-3.82 1.874-6.759 0-2.938-.625-5.216-1.874-6.796s-3.012-2.35-5.253-2.35c-2.24 0-4.004.807-5.326 2.461-1.286 1.653-1.947 3.893-1.947 6.795 0 2.903.624 5.143 1.873 6.649 1.249 1.507 3.086 2.351 5.4 2.351Zm41.88 7.054c-5.951 0-10.616-1.286-14.069-3.821l2.534-6.428a18.865 18.865 0 0 0 5.511 2.718c2.02.624 4.077.955 6.098.955 1.579 0 2.828-.257 3.673-.771.845-.515 1.286-1.213 1.286-2.131 0-.771-.294-1.396-.919-1.8-.624-.441-1.689-.845-3.269-1.212l-5.106-1.212c-3.012-.625-5.253-1.654-6.649-3.049-1.396-1.433-2.131-3.343-2.131-5.694 0-1.91.551-3.637 1.69-5.143 1.139-1.506 2.682-2.682 4.702-3.527 2.021-.845 4.335-1.285 7.016-1.285 2.241 0 4.409.33 6.503 1.028 2.093.698 4.004 1.616 5.693 2.865l-2.571 6.209c-1.58-1.102-3.233-1.947-4.886-2.498-1.653-.551-3.269-.845-4.812-.845-1.506 0-2.718.257-3.563.808-.845.514-1.286 1.249-1.286 2.204 0 .698.257 1.249.771 1.653.515.404 1.433.772 2.719 1.102l5.216 1.176c3.196.734 5.51 1.836 6.943 3.306 1.433 1.469 2.131 3.453 2.131 5.877 0 2.939-1.176 5.29-3.527 7.017-2.351 1.726-5.547 2.498-9.698 2.498Zm36.512 0c-3.894 0-6.796-1.065-8.706-3.27-1.91-2.204-2.865-5.4-2.865-9.808V92.6h9.257v18.735c0 1.91.404 3.343 1.212 4.261.808.918 2.02 1.396 3.71 1.396 1.874 0 3.416-.661 4.592-1.947 1.175-1.286 1.8-3.086 1.8-5.253V92.6h9.331v31.114h-9.037v-6.208l.808.074c-.918 2.167-2.204 3.82-3.967 4.922-1.764 1.139-3.784 1.69-6.135 1.69Zm31.958-.478V101.49c0-1.47-.036-2.94-.11-4.445-.073-1.506-.183-2.976-.404-4.445h8.706l.992 8.228-.992-.477c.478-2.792 1.653-4.886 3.527-6.318 1.873-1.433 3.967-2.131 6.355-2.131.698 0 1.322.073 1.873.184.551.11 1.029.257 1.433.44l-.037 8.413c-1.506-.698-3.049-1.029-4.555-1.029-1.69 0-3.049.294-4.151.918a6.672 6.672 0 0 0-2.535 2.609c-.587 1.138-.881 2.461-.881 4.004v16.273h-9.221Zm43.349 2.315-14.547-33.466h9.624l8.963 22.592-4.04 10.874Zm-10.396 11.681-2.131-7.126c1.91-.368 3.527-.845 4.739-1.396 1.212-.551 2.277-1.249 3.085-2.057.809-.809 1.507-1.837 2.021-3.013l2.388-5.326 2.461-3.637 9.147-22.592h9.147l-14.29 32.731c-1.249 2.865-2.718 5.143-4.372 6.832a17.312 17.312 0 0 1-5.51 3.821c-2.057.845-4.261 1.433-6.685 1.763Z"/></g><path fill="#F35A5A" fill-rule="evenodd" d="M465.365 112h-2.655c-.379 0-.726.214-.915.561l-2.653 4.888a1.187 1.187 0 0 0 0 1.125l2.65 4.888c.189.347.539.561.918.561h2.655V112Z" clip-rule="evenodd"/><path fill="#D63B3B" fill-rule="evenodd" d="M465.365 112h2.655c.379 0 .727.214.916.561l2.652 4.888c.19.347.19.778 0 1.125l-2.649 4.888c-.19.347-.54.561-.919.561h-2.655V112Z" clip-rule="evenodd"/><g filter="url(#b)"><path fill="url(#c)" fill-rule="evenodd" d="M38.21 36.345h-6.728a8.11 8.11 0 0 0-7.042 4.1L4.089 75.973a8.262 8.262 0 0 0 0 8.2L24.44 119.7a8.108 8.108 0 0 0 7.042 4.099h40.702a8.108 8.108 0 0 0 7.042-4.099l20.35-35.529a8.229 8.229 0 0 0 .014-8.199L79.24 40.445a8.148 8.148 0 0 0-7.056-4.1h-6.715v9.087h-27.26v-9.087Z" clip-rule="evenodd"/></g><path fill="#C4C4C4" fill-rule="evenodd" d="M74.709 22.799c1.76.278 5.943-6.15 8.047-9.616a.477.477 0 0 1 .88.33l-4.354 27.276C69.23 50.05 51.84 49.975 51.84 49.975V0c2.318.523 4.564 8.535 6.304 14.744 1.124 4.011 2.038 7.27 2.623 7.27 1.34 0 2.733-4.217 3.963-7.94.992-3.003 1.877-5.685 2.543-5.572.655.111 1.702 2.808 2.875 5.83 1.498 3.861 3.203 8.254 4.56 8.466Zm-22.78 2.869.329.41-.125-.243a.272.272 0 0 0-.203-.167Zm13.485-5.476c0 1.265.979 2.277 2.202 2.277 1.223 0 2.225-1.037 2.201-2.277 0-1.265-.978-2.277-2.201-2.277s-2.202 1.012-2.202 2.277Zm12.523 3.619c0 .683.538 1.265 1.223 1.265s1.223-.582 1.223-1.265c0-.684-.538-1.266-1.223-1.266-.66 0-1.223.557-1.223 1.266Z" clip-rule="evenodd"/><path fill="#DFE0E6" fill-rule="evenodd" d="m51.419 26.08.33-.412a.325.325 0 0 0-.204.166l-.126.246Zm.42-.525V0c-2.318.522-4.564 8.526-6.304 14.729-1.124 4.007-2.038 7.263-2.623 7.263-1.34 0-2.733-4.213-3.963-7.933-.992-3-1.877-5.678-2.543-5.566-.656.112-1.705 2.807-2.88 5.828-1.497 3.85-3.199 8.228-4.556 8.454-1.76.278-5.943-6.142-8.047-9.605a.477.477 0 0 0-.88.328l4.353 27.3C34.45 50.05 51.84 49.975 51.84 49.975V25.555Zm-28.543-1.768c0 .682.538 1.263 1.223 1.263.684 0 1.223-.581 1.223-1.263s-.539-1.264-1.223-1.264c-.66 0-1.223.556-1.223 1.264Zm10.566-3.615c0 1.264.978 2.275 2.201 2.275s2.201-1.037 2.201-2.275c0-1.264-.978-2.275-2.2-2.275-1.224 0-2.202 1.01-2.202 2.275Z" clip-rule="evenodd"/><path fill="#F35A5A" fill-rule="evenodd" d="M51.84 29.278h-2.369a.933.933 0 0 0-.817.5l-2.366 4.361c-.17.31-.17.694 0 1.005l2.364 4.36c.169.31.481.5.82.5h2.368V29.279Z" clip-rule="evenodd"/><path fill="#D63B3B" fill-rule="evenodd" d="M51.839 29.278h2.368c.338 0 .648.19.817.5l2.367 4.361c.169.31.169.694 0 1.004l-2.364 4.361c-.17.31-.482.5-.82.5H51.84V29.279Z" clip-rule="evenodd"/><g filter="url(#d)"><path fill="url(#e)" d="M258.789 32.593h3.262v19.113h-2.543L249.22 38.38v13.325H246V32.593h2.526l10.313 13.325-.05-13.324Z"/><path fill="url(#f)" d="M268.592 51.706V32.593h3.521v19.113h-3.521Z"/><path fill="url(#g)" d="M294.503 32.593h2.761v19.113h-3.02V39.887l-5.194 11.819h-2.225l-5.194-11.819v11.819h-2.978V32.593h2.76l6.541 14.964 6.549-14.963Z"/><path fill="url(#h)" d="M303.804 51.706V32.593h3.521v19.113h-3.521Z"/><path fill="url(#i)" d="M330.854 47.356a7.995 7.995 0 0 1-4.032 3.814 10.69 10.69 0 0 0 1.539 2.075 17.854 17.854 0 0 0 2.016 1.873L327.951 57a15.233 15.233 0 0 1-2.434-2.2 16.507 16.507 0 0 1-2.074-2.852h-.811a9.95 9.95 0 0 1-4.977-1.196 7.962 7.962 0 0 1-3.22-3.43 11.855 11.855 0 0 1-1.113-5.193 11.263 11.263 0 0 1 1.13-5.194 8.013 8.013 0 0 1 3.228-3.422c3.112-1.589 6.8-1.589 9.92 0a7.763 7.763 0 0 1 3.22 3.422 11.249 11.249 0 0 1 1.113 5.194 11.624 11.624 0 0 1-1.079 5.227Zm-12.463 0a5.886 5.886 0 0 0 8.306.2l.2-.2a7.963 7.963 0 0 0 1.514-5.194 7.963 7.963 0 0 0-1.514-5.194 5.92 5.92 0 0 0-8.372-.134l-.142.134a8.05 8.05 0 0 0-1.506 5.244 7.963 7.963 0 0 0 1.489 5.194l.025-.05Z"/></g><defs><linearGradient id="e" x1="246.001" x2="262.047" y1="42.151" y2="42.151" gradientUnits="userSpaceOnUse"><stop offset="0" stop-color="#221A3F"/><stop offset=".336" stop-color="#221B41"/><stop offset=".608" stop-color="#201F44"/><stop offset=".894" stop-color="#1E2346"/><stop offset="1" stop-color="#1E2447"/></linearGradient><linearGradient id="f" x1="268.59" x2="272.111" y1="42.151" y2="42.151" gradientUnits="userSpaceOnUse"><stop offset="0" stop-color="#221A3F"/><stop offset=".336" stop-color="#221B41"/><stop offset=".608" stop-color="#201F44"/><stop offset=".894" stop-color="#1E2346"/><stop offset="1" stop-color="#1E2447"/></linearGradient><linearGradient id="g" x1="278.653" x2="297.264" y1="42.151" y2="42.151" gradientUnits="userSpaceOnUse"><stop offset="0" stop-color="#221A3F"/><stop offset=".336" stop-color="#221B41"/><stop offset=".608" stop-color="#201F44"/><stop offset=".894" stop-color="#1E2346"/><stop offset="1" stop-color="#1E2447"/></linearGradient><linearGradient id="h" x1="303.806" x2="307.327" y1="42.151" y2="42.151" gradientUnits="userSpaceOnUse"><stop offset="0" stop-color="#221A3F"/><stop offset=".336" stop-color="#221B41"/><stop offset=".608" stop-color="#201F44"/><stop offset=".894" stop-color="#1E2346"/><stop offset="1" stop-color="#1E2447"/></linearGradient><linearGradient id="i" x1="313.327" x2="331.946" y1="44.665" y2="44.665" gradientUnits="userSpaceOnUse"><stop offset="0" stop-color="#221A3F"/><stop offset=".336" stop-color="#221B41"/><stop offset=".608" stop-color="#201F44"/><stop offset=".894" stop-color="#1E2346"/><stop offset="1" stop-color="#1E2447"/></linearGradient><filter id="a" width="314.398" height="69.71" x="133" y="78" color-interpolation-filters="sRGB" filterUnits="userSpaceOnUse"><feFlood flood-opacity="0" result="BackgroundImageFix"/><feColorMatrix in="SourceAlpha" result="hardAlpha" values="0 0 0 0 0 0 0 0 0 0 0 0 0 0 0 0 0 0 127 0"/><feOffset dx="1" dy="4"/><feGaussianBlur stdDeviation="3"/><feComposite in2="hardAlpha" operator="out"/><feColorMatrix values="0 0 0 0 0 0 0 0 0 0 0 0 0 0 0 0 0 0 0.08 0"/><feBlend in2="BackgroundImageFix" result="effect1_dropShadow_318_3287"/><feBlend in="SourceGraphic" in2="effect1_dropShadow_318_3287" result="shape"/></filter><filter id="b" width="105.678" height="95.455" x="0" y="35.345" color-interpolation-filters="sRGB" filterUnits="userSpaceOnUse"><feFlood flood-opacity="0" result="BackgroundImageFix"/><feColorMatrix in="SourceAlpha" result="hardAlpha" values="0 0 0 0 0 0 0 0 0 0 0 0 0 0 0 0 0 0 127 0"/><feOffset dx="1" dy="3"/><feGaussianBlur stdDeviation="2"/><feComposite in2="hardAlpha" operator="out"/><feColorMatrix values="0 0 0 0 0 0 0 0 0 0 0 0 0 0 0 0 0 0 0.05 0"/><feBlend in2="BackgroundImageFix" result="effect1_dropShadow_318_3287"/><feBlend in="SourceGraphic" in2="effect1_dropShadow_318_3287" result="shape"/></filter><filter id="d" width="93.938" height="32.678" x="243" y="32.322" color-interpolation-filters="sRGB" filterUnits="userSpaceOnUse"><feFlood flood-opacity="0" result="BackgroundImageFix"/><feColorMatrix in="SourceAlpha" result="hardAlpha" values="0 0 0 0 0 0 0 0 0 0 0 0 0 0 0 0 0 0 127 0"/><feOffset dx="1" dy="4"/><feGaussianBlur stdDeviation="2"/><feComposite in2="hardAlpha" operator="out"/><feColorMatrix values="0 0 0 0 0 0 0 0 0 0 0 0 0 0 0 0 0 0 0.1 0"/><feBlend in2="BackgroundImageFix" result="effect1_dropShadow_318_3287"/><feBlend in="SourceGraphic" in2="effect1_dropShadow_318_3287" result="shape"/></filter><radialGradient id="c" cx="0" cy="0" r="1" gradientTransform="matrix(97.711 0 0 98.4125 76.48 122.661)" gradientUnits="userSpaceOnUse"><stop stop-color="#EC991C"/><stop offset="1" stop-color="#E9B213"/></radialGradient></defs></svg>