<svg xmlns="http://www.w3.org/2000/svg" width="50" height="50" fill="none" viewBox="0 0 50 50"><circle cx="25" cy="25" r="25" fill="url(#paint0_linear_1291_2963)"/><path fill="#fff" d="M24.8024 38.0414C22.8954 38.0414 21.1617 37.8102 19.5436 37.319C17.9255 36.8278 16.5386 36.1632 15.3828 35.2675L17.1454 31.3956C18.2723 32.2336 19.4569 32.8403 20.6705 33.2449C21.8841 33.6494 23.2132 33.8517 24.6291 33.8517C26.0738 33.8517 27.1429 33.5916 27.8941 33.0715C28.6454 32.5514 29.021 31.8001 29.021 30.7888C29.021 30.1532 28.7899 29.6331 28.2987 29.2574C27.8075 28.8818 27.1718 28.564 26.3627 28.3328C25.5537 28.1016 24.6869 27.8416 23.7622 27.6104C22.8376 27.3793 21.8841 27.1192 20.9306 26.8014C19.977 26.4835 19.0813 26.079 18.3012 25.5589C17.4921 25.0388 16.8564 24.3742 16.3941 23.5363C15.9318 22.6984 15.6718 21.6293 15.6718 20.3579C15.6718 18.9132 16.0763 17.6129 16.9142 16.4571C17.7522 15.3014 18.8791 14.4056 20.3238 13.7411C21.7685 13.0765 23.3866 12.7586 25.207 12.7586C26.3049 12.7586 27.374 12.8742 28.472 13.1054C29.57 13.3365 30.5813 13.6544 31.506 14.0878C32.4306 14.4923 33.2396 14.9835 33.8753 15.5325L32.1127 19.4044C29.859 17.7574 27.5763 16.9484 25.2358 16.9484C23.9645 16.9484 22.9532 17.2084 22.173 17.7574C21.4218 18.2775 21.0172 19.0288 21.0172 20.0112C21.0172 20.7335 21.2484 21.2825 21.7396 21.6871C22.2308 22.0916 22.8665 22.4383 23.6755 22.6984C24.4846 22.9584 25.3514 23.2185 26.3049 23.4207C27.2585 23.623 28.212 23.9119 29.1366 24.2009C30.0612 24.4898 30.957 24.9232 31.766 25.4433C32.5751 25.9634 33.2107 26.628 33.7019 27.466C34.1932 28.275 34.4243 29.3441 34.4243 30.6155C34.4243 32.0891 34.0198 33.3893 33.2107 34.5162C32.4017 35.6431 31.2748 36.5099 29.8301 37.1456C28.3854 37.7235 26.7095 38.0414 24.8024 38.0414ZM23.0399 41.7688V37.1167L23.4155 34.6896V15.5036L23.0399 13.4232V9.03125H27.2585V13.4232L26.9406 15.5036V34.6896L27.2585 37.1167V41.7688H23.0399Z"/><defs><linearGradient id="paint0_linear_1291_2963" x1="-5.5" x2="50.5" y1="14" y2="39.5" gradientUnits="userSpaceOnUse"><stop stop-color="#169FEE"/><stop offset="1" stop-color="#3BB5FB"/></linearGradient></defs></svg>