<svg width="35" height="52" viewBox="0 0 35 52" fill="none" xmlns="http://www.w3.org/2000/svg">
    <circle cx="18.3897" cy="16.6104" r="16.6104" fill="url(#paint0_linear_1054_1137)" />
    <path d="M18.2585 25.2748C16.9915 25.2748 15.8396 25.1212 14.7645 24.7948C13.6894 24.4685 12.7679 24.0269 12 23.4318L13.1711 20.8592C13.9198 21.416 14.7069 21.8191 15.5132 22.0879C16.3195 22.3567 17.2027 22.4911 18.1434 22.4911C19.1033 22.4911 19.8136 22.3183 20.3127 21.9727C20.8119 21.6272 21.0614 21.128 21.0614 20.4561C21.0614 20.0337 20.9079 19.6882 20.5815 19.4386C20.2551 19.189 19.8328 18.9778 19.2952 18.8242C18.7577 18.6707 18.1817 18.4979 17.5674 18.3443C16.9531 18.1907 16.3195 18.0179 15.686 17.8068C15.0525 17.5956 14.4573 17.3268 13.939 16.9812C13.4015 16.6357 12.9791 16.1941 12.6719 15.6374C12.3648 15.0806 12.192 14.3703 12.192 13.5256C12.192 12.5657 12.4608 11.7018 13.0175 10.9339C13.5742 10.166 14.323 9.57082 15.2829 9.12927C16.2428 8.68772 17.3178 8.47654 18.5273 8.47654C19.2568 8.47654 19.9672 8.55333 20.6967 8.70691C21.4262 8.8605 22.0981 9.07168 22.7125 9.35965C23.3268 9.62842 23.8643 9.95478 24.2867 10.3195L23.1156 12.8921C21.6182 11.7978 20.1015 11.2602 18.5465 11.2602C17.7018 11.2602 17.0299 11.433 16.5115 11.7978C16.0124 12.1434 15.7436 12.6425 15.7436 13.2952C15.7436 13.7752 15.8972 14.1399 16.2236 14.4087C16.5499 14.6775 16.9723 14.9079 17.5098 15.0806C18.0474 15.2534 18.6233 15.4262 19.2568 15.5606C19.8904 15.695 20.5239 15.887 21.1382 16.0789C21.7526 16.2709 22.3477 16.5589 22.8853 16.9044C23.4228 17.25 23.8452 17.6916 24.1715 18.2483C24.4979 18.7859 24.6515 19.4962 24.6515 20.3409C24.6515 21.32 24.3827 22.1839 23.8452 22.9326C23.3076 23.6813 22.5589 24.2573 21.599 24.6796C20.6391 25.0636 19.5256 25.2748 18.2585 25.2748ZM17.0875 27.7513V24.6604L17.337 23.0478V10.3003L17.0875 8.91809V6H19.8904V8.91809L19.6792 10.3003V23.0478L19.8904 24.6604V27.7513H17.0875Z" fill="white" />
    <path d="M5.14849 52.0001C3.62908 52.0001 2.48639 51.6108 1.70785 50.8448C0.929308 50.0663 0.540039 48.9361 0.540039 47.4293V41.1382H2.82543V47.5423C2.82543 48.3962 3.02634 49.0491 3.41561 49.5012C3.80488 49.9533 4.3825 50.1793 5.14849 50.1793C5.8768 50.1793 6.44187 49.9533 6.83114 49.5012C7.2204 49.0491 7.42132 48.3962 7.42132 47.5423V41.1382H9.75693V47.4418C9.75693 48.9236 9.35511 50.0663 8.56401 50.8448C7.77292 51.6108 6.64278 52.0001 5.14849 52.0001Z" fill="#1F2348" fill-opacity="0.4" />
    <path d="M17.0901 52C16.5502 52 16.0228 51.9498 15.4954 51.8619C14.9805 51.7614 14.4908 51.6233 14.0388 51.4349C13.5867 51.2466 13.1974 51.0205 12.8584 50.7694L13.6244 49.0868C14.1518 49.4635 14.7043 49.7397 15.2819 49.9155C15.8595 50.0913 16.4623 50.1918 17.0901 50.1918C17.7682 50.1918 18.2956 50.0788 18.6598 49.8653C19.0239 49.6393 19.2123 49.3379 19.2123 48.9486C19.2123 48.7226 19.1369 48.5217 18.9863 48.3584C18.8356 48.1952 18.597 48.0571 18.2579 47.9315C17.9315 47.8059 17.4794 47.6929 16.9269 47.5674C16.2363 47.4292 15.6461 47.266 15.1438 47.0651C14.6792 46.8642 14.2773 46.6507 13.976 46.3995C13.6746 46.1484 13.4486 45.8596 13.3105 45.5205C13.1598 45.1815 13.097 44.7922 13.097 44.3402C13.097 43.7123 13.2728 43.1347 13.6369 42.6324C13.9885 42.1301 14.4908 41.7283 15.1312 41.4395C15.7591 41.1507 16.5 41 17.3538 41C17.8687 41 18.371 41.0502 18.8481 41.1507C19.3378 41.2511 19.7899 41.3893 20.1917 41.5776C20.6061 41.7534 20.9452 41.9795 21.234 42.2432L20.4805 43.9258C20.0034 43.5491 19.5011 43.2728 18.9737 43.097C18.4463 42.9212 17.9189 42.8208 17.3789 42.8208C16.7636 42.8208 16.2739 42.9463 15.9223 43.1849C15.5582 43.4361 15.3824 43.7626 15.3824 44.1895C15.3824 44.4155 15.4577 44.6164 15.5958 44.7797C15.734 44.9429 15.9726 45.081 16.299 45.2066C16.6255 45.3322 17.0776 45.4578 17.6426 45.5959C18.3207 45.734 18.8984 45.8973 19.3881 46.0982C19.8778 46.2865 20.2796 46.5126 20.6061 46.7511C20.92 47.0023 21.1586 47.2785 21.3093 47.605C21.46 47.9315 21.5353 48.3082 21.5353 48.7226C21.5353 49.4007 21.3595 49.9783 21.0079 50.468C20.6563 50.9578 20.1541 51.3345 19.4885 51.5982C18.823 51.8619 18.0194 52 17.0901 52Z" fill="#1F2348" fill-opacity="0.4" />
    <path d="M24.7378 51.8619V41.1382H28.8942C30.0746 41.1382 31.0791 41.3517 31.9204 41.766C32.7618 42.1804 33.4022 42.7957 33.8542 43.5994C34.3063 44.403 34.5198 45.3574 34.5198 46.4875C34.5198 47.6176 34.2937 48.5845 33.8542 49.3882C33.4147 50.1793 32.7743 50.7946 31.933 51.2215C31.0917 51.6485 30.0871 51.8619 28.8942 51.8619H24.7378ZM27.086 49.9658H28.7309C29.8736 49.9658 30.7401 49.677 31.3051 49.0994C31.8702 48.5217 32.159 47.6553 32.159 46.4875C32.159 44.1896 31.0163 43.0343 28.7184 43.0343H27.0734V49.9658H27.086Z" fill="#1F2348" fill-opacity="0.4" />
    <defs>
        <linearGradient id="paint0_linear_1054_1137" x1="5.49123" y1="2.65536" x2="15.8035" y2="19.4128" gradientUnits="userSpaceOnUse">
            <stop stop-color="#289FEE" />
            <stop offset="1" stop-color="#1D97EA" />
        </linearGradient>
    </defs>
</svg>
    