<svg width="25" height="22" viewBox="0 0 25 22" fill="none" xmlns="http://www.w3.org/2000/svg">
    <path d="M4.11344 22C1.20518 22 -0.202218 18.4404 1.91969 16.4516L8.27435 10.4955C8.63214 10.1601 9.21762 10.4138 9.21762 10.9042C9.21762 11.3952 8.63078 11.6486 8.27334 11.3119L2.18619 5.57811C0.0586419 3.57406 1.47688 0 4.39967 0C5.25593 0 6.07711 0.34018 6.68254 0.945692L12.8367 7.10074C13.1758 7.43994 12.9356 8.01986 12.4559 8.01986C11.9763 8.01986 11.736 7.43994 12.0752 7.10074L18.227 0.948074C18.8339 0.341037 19.6572 0 20.5156 0C23.4484 0 24.8689 3.5886 22.7306 5.59592L16.6411 11.3126C16.2822 11.6495 15.6943 11.395 15.6943 10.9027C15.6943 10.4116 16.2799 10.1566 16.6394 10.4914L23.0024 16.4158C25.1456 18.4113 23.7336 22 20.8052 22C19.9582 22 19.1451 21.6667 18.5418 21.0721L12.0819 14.7053C11.7425 14.3707 11.9794 13.7929 12.4559 13.7929C12.9325 13.7929 13.1694 14.3707 12.83 14.7053L6.36524 21.0768C5.76503 21.6684 4.95616 22 4.11344 22Z" fill="#F35A5A" />
</svg>
    