<svg width="22" height="22" viewBox="0 0 22 22" fill="none" xmlns="http://www.w3.org/2000/svg">
    <circle cx="10.6104" cy="10.6104" r="10.6104" fill="#30D7B4" />
    <path d="M11.2885 4.76489C11.8425 4.76489 12.3466 4.82149 12.8009 4.9347C13.2663 5.0479 13.715 5.21771 14.1472 5.44411L13.3494 7.36291C12.9727 7.1931 12.6236 7.06292 12.3023 6.97236C11.981 6.87048 11.643 6.81953 11.2885 6.81953C10.9561 6.81953 10.6514 6.87048 10.3744 6.97236C10.1084 7.06292 9.87021 7.20443 9.65969 7.39687C9.44917 7.58932 9.27188 7.82704 9.12784 8.11005C8.99488 8.39306 8.89516 8.72135 8.82868 9.09492H12.1029V10.5552H8.71233C8.71233 10.6005 8.70679 10.6628 8.69571 10.742C8.69571 10.81 8.69571 10.8949 8.69571 10.9967C8.69571 11.076 8.69571 11.1609 8.69571 11.2514C8.69571 11.3307 8.70125 11.4156 8.71233 11.5062H11.5876V12.9835H8.8453C8.93394 13.425 9.08906 13.7985 9.31066 14.1042C9.54335 14.3985 9.83697 14.6249 10.1915 14.7834C10.5572 14.9306 10.9782 15.0041 11.4547 15.0041C11.8757 15.0041 12.2691 14.9645 12.6347 14.8853C13.0114 14.7947 13.3605 14.6758 13.6818 14.5287V16.6512C13.3716 16.8097 13.0225 16.9286 12.6347 17.0078C12.258 17.0984 11.8148 17.1437 11.3051 17.1437C10.4408 17.1437 9.67077 16.9852 8.99488 16.6682C8.31899 16.3399 7.75944 15.8645 7.31623 15.2419C6.87302 14.6192 6.57386 13.8664 6.41873 12.9835H5.30518V11.5062H6.26915C6.25807 11.4496 6.24699 11.3703 6.23591 11.2684C6.23591 11.1665 6.23591 11.076 6.23591 10.9967C6.23591 10.9062 6.23591 10.8213 6.23591 10.742C6.23591 10.6628 6.24145 10.6005 6.25253 10.5552H5.30518V9.09492H6.38549C6.52954 8.18929 6.82316 7.41385 7.26637 6.76859C7.70958 6.12333 8.27467 5.6309 8.96164 5.29129C9.64861 4.94036 10.4242 4.76489 11.2885 4.76489Z" fill="white" />
</svg>