<svg width="21" height="21" viewBox="0 0 21 21" fill="none" xmlns="http://www.w3.org/2000/svg">
    <circle cx="10.6104" cy="10.6104" r="10.6104" fill="url(#paint0_linear_1054_1148)" />
    <path d="M11.2885 4.76465C11.8425 4.76465 12.3466 4.82125 12.8009 4.93445C13.2663 5.04766 13.715 5.21746 14.1472 5.44387L13.3494 7.36267C12.9727 7.19286 12.6236 7.06268 12.3023 6.97211C11.981 6.87023 11.643 6.81929 11.2885 6.81929C10.9561 6.81929 10.6514 6.87023 10.3744 6.97211C10.1084 7.06268 9.87021 7.20418 9.65969 7.39663C9.44917 7.58907 9.27188 7.8268 9.12784 8.10981C8.99488 8.39282 8.89516 8.72111 8.82868 9.09468H12.1029V10.555H8.71233C8.71233 10.6003 8.70679 10.6625 8.69571 10.7418C8.69571 10.8097 8.69571 10.8946 8.69571 10.9965C8.69571 11.0757 8.69571 11.1606 8.69571 11.2512C8.69571 11.3304 8.70125 11.4153 8.71233 11.5059H11.5876V12.9832H8.8453C8.93394 13.4247 9.08906 13.7983 9.31066 14.1039C9.54335 14.3983 9.83697 14.6247 10.1915 14.7831C10.5572 14.9303 10.9782 15.0039 11.4547 15.0039C11.8757 15.0039 12.2691 14.9643 12.6347 14.885C13.0114 14.7945 13.3605 14.6756 13.6818 14.5284V16.651C13.3716 16.8095 13.0225 16.9284 12.6347 17.0076C12.258 17.0982 11.8148 17.1434 11.3051 17.1434C10.4408 17.1434 9.67077 16.985 8.99488 16.668C8.31899 16.3397 7.75944 15.8642 7.31623 15.2416C6.87302 14.619 6.57386 13.8662 6.41873 12.9832H5.30518V11.5059H6.26915C6.25807 11.4493 6.24699 11.3701 6.23591 11.2682C6.23591 11.1663 6.23591 11.0757 6.23591 10.9965C6.23591 10.9059 6.23591 10.821 6.23591 10.7418C6.23591 10.6625 6.24145 10.6003 6.25253 10.555H5.30518V9.09468H6.38549C6.52954 8.18905 6.82316 7.41361 7.26637 6.76835C7.70958 6.12309 8.27467 5.63065 8.96164 5.29104C9.64861 4.94011 10.4242 4.76465 11.2885 4.76465Z" fill="white" />
    <defs>
        <linearGradient id="paint0_linear_1054_1148" x1="0" y1="0" x2="24.4955" y2="10.1638" gradientUnits="userSpaceOnUse">
            <stop stop-color="#2AB799" />
            <stop offset="1" stop-color="#24CFAB" />
        </linearGradient>
    </defs>
</svg>
    