<svg xmlns="http://www.w3.org/2000/svg" width="21" height="21" fill="none" viewBox="0 0 21 21"><circle cx="10.39" cy="10.39" r="10.39" fill="url(#paint0_linear_1054_1137)"/><path fill="#fff" d="M10.3076 15.8091C9.51505 15.8091 8.79457 15.713 8.12211 15.5089C7.44966 15.3047 6.87327 15.0286 6.39294 14.6563L7.12544 13.0472C7.59376 13.3954 8.08609 13.6476 8.59043 13.8157C9.09477 13.9838 9.64714 14.0679 10.2355 14.0679C10.8359 14.0679 11.2802 13.9598 11.5925 13.7437C11.9047 13.5275 12.0608 13.2153 12.0608 12.795C12.0608 12.5309 11.9647 12.3147 11.7606 12.1586C11.5564 12.0025 11.2923 11.8704 10.956 11.7744C10.6198 11.6783 10.2596 11.5702 9.8753 11.4741C9.49104 11.3781 9.09477 11.27 8.6985 11.1379C8.30223 11.0058 7.92998 10.8377 7.60576 10.6216C7.26954 10.4054 7.00536 10.1292 6.81323 9.781C6.6211 9.43277 6.51303 8.98847 6.51303 8.46011C6.51303 7.85971 6.68114 7.31934 7.02938 6.83902C7.37761 6.35869 7.84593 5.98644 8.44633 5.71025C9.04674 5.43407 9.71919 5.30198 10.4757 5.30198C10.932 5.30198 11.3763 5.35001 11.8326 5.44607C12.2889 5.54214 12.7092 5.67423 13.0935 5.85435C13.4777 6.02246 13.814 6.2266 14.0781 6.45476L13.3456 8.06384C12.409 7.37938 11.4604 7.04315 10.4877 7.04315C9.95935 7.04315 9.53907 7.15123 9.21485 7.37938C8.90264 7.59553 8.73453 7.90774 8.73453 8.31601C8.73453 8.61622 8.83059 8.84437 9.03473 9.01248C9.23887 9.1806 9.50305 9.3247 9.83927 9.43277C10.1755 9.54084 10.5357 9.64891 10.932 9.73297C11.3283 9.81703 11.7245 9.93711 12.1088 10.0572C12.4931 10.1773 12.8653 10.3574 13.2015 10.5735C13.5378 10.7897 13.802 11.0659 14.0061 11.4141C14.2102 11.7503 14.3063 12.1946 14.3063 12.723C14.3063 13.3354 14.1382 13.8758 13.802 14.3441C13.4657 14.8124 12.9974 15.1726 12.397 15.4368C11.7966 15.677 11.1001 15.8091 10.3076 15.8091ZM9.57509 17.3581V15.4248L9.7312 14.4161V6.44275L9.57509 5.57816V3.75293H11.3283V5.57816L11.1962 6.44275V14.4161L11.3283 15.4248V17.3581H9.57509V17.3581Z"/><defs><linearGradient id="paint0_linear_1054_1137" x1="5.491" x2="15.803" y1="2.655" y2="19.413" gradientUnits="userSpaceOnUse"><stop stop-color="#289FEE"/><stop offset="1" stop-color="#1D97EA"/></linearGradient></defs></svg>