<svg width="43" height="49" fill="none" xmlns="http://www.w3.org/2000/svg"><path d="M36.816 13.45 29.858 1.385A2.782 2.782 0 0 0 27.448 0H13.54a2.77 2.77 0 0 0-2.402 1.386L4.18 13.449a2.776 2.776 0 0 0 0 2.779l6.95 12.064a2.783 2.783 0 0 0 2.41 1.385H27.45c.994 0 1.912-.527 2.41-1.385l6.95-12.011c.52-.874.527-1.958.008-2.832Z" fill="url(#a)"/><path d="M7.388 36.921h1.687v9.037H7.776l-5.303-6.302v6.302H.792V36.92h1.293l5.303 6.302v-6.302ZM12.087 45.958V36.92h1.506v9.037h-1.506ZM28.654 45.958V36.92h1.506v9.037h-1.506ZM24.299 36.921h1.343v9.037h-1.465V40.37l-2.504 5.588h-1.099l-2.503-5.588v5.588h-1.466V36.92h1.344l3.175 7.075 3.175-7.075ZM41.661 44.259c-.498.996-1.272 1.58-1.959 1.866.081.187.46.708.745 1.008.286.3.587.605.968.915l-1.16.922c-.428-.3-.8-.659-1.178-1.077-.378-.418-.7-.88-.994-1.394-.07.005-.268.012-.393.012-.945 0-1.734-.194-2.415-.58a3.82 3.82 0 0 1-1.56-1.672c-.33-.662-.543-1.544-.543-2.543 0-.998.183-1.814.547-2.542a3.877 3.877 0 0 1 1.568-1.672c.681-.389 1.477-.58 2.403-.58.926 0 1.734.194 2.416.58a3.82 3.82 0 0 1 1.56 1.672c.362.728.542 1.544.542 2.542 0 .998-.217 1.884-.547 2.543Zm-6.04.007c.494.595 1.182.893 2.07.893.886 0 1.577-.298 2.068-.893.493-.597.74-1.438.74-2.55 0-1.104-.247-1.964-.74-2.555-.494-.59-1.182-.887-2.069-.887-.886 0-1.578.292-2.069.88-.493.588-.74 1.45-.74 2.562 0 1.112.247 1.953.74 2.55Z" fill="#B3B3B3"/><defs><radialGradient id="a" cx="0" cy="0" r="1" gradientUnits="userSpaceOnUse" gradientTransform="translate(20.504 14.838) scale(15.7961)"><stop stop-color="#EC991B"/><stop offset="1" stop-color="#E8B112"/></radialGradient></defs></svg>